<?xml version="1.0" encoding="utf-8" standalone="no"?>
<!DOCTYPE svg PUBLIC "-//W3C//DTD SVG 1.1//EN"
  "http://www.w3.org/Graphics/SVG/1.1/DTD/svg11.dtd">
<!-- Created with matplotlib (http://matplotlib.org/) -->
<svg height="326.038875pt" version="1.1" viewBox="0 0 599.48815 326.038875" width="599.48815pt" xmlns="http://www.w3.org/2000/svg" xmlns:xlink="http://www.w3.org/1999/xlink">
 <defs>
  <style type="text/css">
*{stroke-linecap:butt;stroke-linejoin:round;}
  </style>
 </defs>
 <g id="figure_1">
  <g id="patch_1">
   <path d="M 0 326.038875 
L 599.48815 326.038875 
L 599.48815 0 
L 0 0 
z
" style="fill:#ffffff;"/>
  </g>
  <g id="axes_1">
   <g id="patch_2">
    <path d="M 108.03375 288.482625 
L 465.15375 288.482625 
L 465.15375 22.370625 
L 108.03375 22.370625 
z
" style="fill:#ffffff;"/>
   </g>
   <g id="patch_3">
    <path clip-path="url(#pa4c2416cb0)" d="M 124.266477 288.482625 
L 156.731932 288.482625 
L 156.731932 174.358464 
L 124.266477 174.358464 
z
" style="fill:#8000ff;opacity:0.5;"/>
   </g>
   <g id="patch_4">
    <path clip-path="url(#pa4c2416cb0)" d="M 156.731932 288.482625 
L 189.197386 288.482625 
L 189.197386 187.481571 
L 156.731932 187.481571 
z
" style="fill:#8000ff;opacity:0.5;"/>
   </g>
   <g id="patch_5">
    <path clip-path="url(#pa4c2416cb0)" d="M 189.197386 288.482625 
L 221.662841 288.482625 
L 221.662841 286.373554 
L 189.197386 286.373554 
z
" style="fill:#8000ff;opacity:0.5;"/>
   </g>
   <g id="patch_6">
    <path clip-path="url(#pa4c2416cb0)" d="M 221.662841 288.482625 
L 254.128295 288.482625 
L 254.128295 35.042625 
L 221.662841 35.042625 
z
" style="fill:#8000ff;opacity:0.5;"/>
   </g>
   <g id="patch_7">
    <path clip-path="url(#pa4c2416cb0)" d="M 254.128295 288.482625 
L 286.59375 288.482625 
L 286.59375 228.60845 
L 254.128295 228.60845 
z
" style="fill:#8000ff;opacity:0.5;"/>
   </g>
   <g id="patch_8">
    <path clip-path="url(#pa4c2416cb0)" d="M 286.59375 288.482625 
L 319.059205 288.482625 
L 319.059205 245.246675 
L 286.59375 245.246675 
z
" style="fill:#8000ff;opacity:0.5;"/>
   </g>
   <g id="patch_9">
    <path clip-path="url(#pa4c2416cb0)" d="M 319.059205 288.482625 
L 351.524659 288.482625 
L 351.524659 288.365454 
L 319.059205 288.365454 
z
" style="fill:#8000ff;opacity:0.5;"/>
   </g>
   <g id="patch_10">
    <path clip-path="url(#pa4c2416cb0)" d="M 351.524659 288.482625 
L 383.990114 288.482625 
L 383.990114 287.076578 
L 351.524659 287.076578 
z
" style="fill:#8000ff;opacity:0.5;"/>
   </g>
   <g id="patch_11">
    <path clip-path="url(#pa4c2416cb0)" d="M 383.990114 288.482625 
L 416.455568 288.482625 
L 416.455568 288.013943 
L 383.990114 288.013943 
z
" style="fill:#8000ff;opacity:0.5;"/>
   </g>
   <g id="patch_12">
    <path clip-path="url(#pa4c2416cb0)" d="M 416.455568 288.482625 
L 448.921023 288.482625 
L 448.921023 94.448117 
L 416.455568 94.448117 
z
" style="fill:#8000ff;opacity:0.5;"/>
   </g>
   <g id="patch_13">
    <path clip-path="url(#pa4c2416cb0)" d="M 124.266477 288.482625 
L 156.731932 288.482625 
L 156.731932 214.430808 
L 124.266477 214.430808 
z
" style="fill:#4856fb;opacity:0.5;"/>
   </g>
   <g id="patch_14">
    <path clip-path="url(#pa4c2416cb0)" d="M 156.731932 288.482625 
L 189.197386 288.482625 
L 189.197386 218.64895 
L 156.731932 218.64895 
z
" style="fill:#4856fb;opacity:0.5;"/>
   </g>
   <g id="patch_15">
    <path clip-path="url(#pa4c2416cb0)" d="M 189.197386 288.482625 
L 221.662841 288.482625 
L 221.662841 287.076578 
L 189.197386 287.076578 
z
" style="fill:#4856fb;opacity:0.5;"/>
   </g>
   <g id="patch_16">
    <path clip-path="url(#pa4c2416cb0)" d="M 221.662841 288.482625 
L 254.128295 288.482625 
L 254.128295 88.589588 
L 221.662841 88.589588 
z
" style="fill:#4856fb;opacity:0.5;"/>
   </g>
   <g id="patch_17">
    <path clip-path="url(#pa4c2416cb0)" d="M 254.128295 288.482625 
L 286.59375 288.482625 
L 286.59375 240.794192 
L 254.128295 240.794192 
z
" style="fill:#4856fb;opacity:0.5;"/>
   </g>
   <g id="patch_18">
    <path clip-path="url(#pa4c2416cb0)" d="M 286.59375 288.482625 
L 319.059205 288.482625 
L 319.059205 239.153804 
L 286.59375 239.153804 
z
" style="fill:#4856fb;opacity:0.5;"/>
   </g>
   <g id="patch_19">
    <path clip-path="url(#pa4c2416cb0)" d="M 319.059205 288.482625 
L 351.524659 288.482625 
L 351.524659 287.896772 
L 319.059205 287.896772 
z
" style="fill:#4856fb;opacity:0.5;"/>
   </g>
   <g id="patch_20">
    <path clip-path="url(#pa4c2416cb0)" d="M 351.524659 288.482625 
L 383.990114 288.482625 
L 383.990114 283.56146 
L 351.524659 283.56146 
z
" style="fill:#4856fb;opacity:0.5;"/>
   </g>
   <g id="patch_21">
    <path clip-path="url(#pa4c2416cb0)" d="M 383.990114 288.482625 
L 416.455568 288.482625 
L 416.455568 284.381654 
L 383.990114 284.381654 
z
" style="fill:#4856fb;opacity:0.5;"/>
   </g>
   <g id="patch_22">
    <path clip-path="url(#pa4c2416cb0)" d="M 416.455568 288.482625 
L 448.921023 288.482625 
L 448.921023 139.324456 
L 416.455568 139.324456 
z
" style="fill:#4856fb;opacity:0.5;"/>
   </g>
   <g id="patch_23">
    <path clip-path="url(#pa4c2416cb0)" d="M 124.266477 288.482625 
L 156.731932 288.482625 
L 156.731932 219.469144 
L 124.266477 219.469144 
z
" style="fill:#10a2f0;opacity:0.5;"/>
   </g>
   <g id="patch_24">
    <path clip-path="url(#pa4c2416cb0)" d="M 156.731932 288.482625 
L 189.197386 288.482625 
L 189.197386 231.303374 
L 156.731932 231.303374 
z
" style="fill:#10a2f0;opacity:0.5;"/>
   </g>
   <g id="patch_25">
    <path clip-path="url(#pa4c2416cb0)" d="M 189.197386 288.482625 
L 221.662841 288.482625 
L 221.662841 287.076578 
L 189.197386 287.076578 
z
" style="fill:#10a2f0;opacity:0.5;"/>
   </g>
   <g id="patch_26">
    <path clip-path="url(#pa4c2416cb0)" d="M 221.662841 288.482625 
L 254.128295 288.482625 
L 254.128295 107.922736 
L 221.662841 107.922736 
z
" style="fill:#10a2f0;opacity:0.5;"/>
   </g>
   <g id="patch_27">
    <path clip-path="url(#pa4c2416cb0)" d="M 254.128295 288.482625 
L 286.59375 288.482625 
L 286.59375 244.660822 
L 254.128295 244.660822 
z
" style="fill:#10a2f0;opacity:0.5;"/>
   </g>
   <g id="patch_28">
    <path clip-path="url(#pa4c2416cb0)" d="M 286.59375 288.482625 
L 319.059205 288.482625 
L 319.059205 235.287174 
L 286.59375 235.287174 
z
" style="fill:#10a2f0;opacity:0.5;"/>
   </g>
   <g id="patch_29">
    <path clip-path="url(#pa4c2416cb0)" d="M 319.059205 288.482625 
L 351.524659 288.482625 
L 351.524659 287.896772 
L 319.059205 287.896772 
z
" style="fill:#10a2f0;opacity:0.5;"/>
   </g>
   <g id="patch_30">
    <path clip-path="url(#pa4c2416cb0)" d="M 351.524659 288.482625 
L 383.990114 288.482625 
L 383.990114 285.084678 
L 351.524659 285.084678 
z
" style="fill:#10a2f0;opacity:0.5;"/>
   </g>
   <g id="patch_31">
    <path clip-path="url(#pa4c2416cb0)" d="M 383.990114 288.482625 
L 416.455568 288.482625 
L 416.455568 283.912972 
L 383.990114 283.912972 
z
" style="fill:#10a2f0;opacity:0.5;"/>
   </g>
   <g id="patch_32">
    <path clip-path="url(#pa4c2416cb0)" d="M 416.455568 288.482625 
L 448.921023 288.482625 
L 448.921023 143.191085 
L 416.455568 143.191085 
z
" style="fill:#10a2f0;opacity:0.5;"/>
   </g>
   <g id="patch_33">
    <path clip-path="url(#pa4c2416cb0)" d="M 124.266477 288.482625 
L 156.731932 288.482625 
L 156.731932 240.208339 
L 124.266477 240.208339 
z
" style="fill:#2adddd;opacity:0.5;"/>
   </g>
   <g id="patch_34">
    <path clip-path="url(#pa4c2416cb0)" d="M 156.731932 288.482625 
L 189.197386 288.482625 
L 189.197386 243.489116 
L 156.731932 243.489116 
z
" style="fill:#2adddd;opacity:0.5;"/>
   </g>
   <g id="patch_35">
    <path clip-path="url(#pa4c2416cb0)" d="M 189.197386 288.482625 
L 221.662841 288.482625 
L 221.662841 287.42809 
L 189.197386 287.42809 
z
" style="fill:#2adddd;opacity:0.5;"/>
   </g>
   <g id="patch_36">
    <path clip-path="url(#pa4c2416cb0)" d="M 221.662841 288.482625 
L 254.128295 288.482625 
L 254.128295 130.185149 
L 221.662841 130.185149 
z
" style="fill:#2adddd;opacity:0.5;"/>
   </g>
   <g id="patch_37">
    <path clip-path="url(#pa4c2416cb0)" d="M 254.128295 288.482625 
L 286.59375 288.482625 
L 286.59375 246.418381 
L 254.128295 246.418381 
z
" style="fill:#2adddd;opacity:0.5;"/>
   </g>
   <g id="patch_38">
    <path clip-path="url(#pa4c2416cb0)" d="M 286.59375 288.482625 
L 319.059205 288.482625 
L 319.059205 236.224539 
L 286.59375 236.224539 
z
" style="fill:#2adddd;opacity:0.5;"/>
   </g>
   <g id="patch_39">
    <path clip-path="url(#pa4c2416cb0)" d="M 319.059205 288.482625 
L 351.524659 288.482625 
L 351.524659 287.42809 
L 319.059205 287.42809 
z
" style="fill:#2adddd;opacity:0.5;"/>
   </g>
   <g id="patch_40">
    <path clip-path="url(#pa4c2416cb0)" d="M 351.524659 288.482625 
L 383.990114 288.482625 
L 383.990114 282.741266 
L 351.524659 282.741266 
z
" style="fill:#2adddd;opacity:0.5;"/>
   </g>
   <g id="patch_41">
    <path clip-path="url(#pa4c2416cb0)" d="M 383.990114 288.482625 
L 416.455568 288.482625 
L 416.455568 281.335219 
L 383.990114 281.335219 
z
" style="fill:#2adddd;opacity:0.5;"/>
   </g>
   <g id="patch_42">
    <path clip-path="url(#pa4c2416cb0)" d="M 416.455568 288.482625 
L 448.921023 288.482625 
L 448.921023 153.502098 
L 416.455568 153.502098 
z
" style="fill:#2adddd;opacity:0.5;"/>
   </g>
   <g id="patch_43">
    <path clip-path="url(#pa4c2416cb0)" d="M 124.266477 288.482625 
L 156.731932 288.482625 
L 156.731932 247.824428 
L 124.266477 247.824428 
z
" style="fill:#62fbc4;opacity:0.5;"/>
   </g>
   <g id="patch_44">
    <path clip-path="url(#pa4c2416cb0)" d="M 156.731932 288.482625 
L 189.197386 288.482625 
L 189.197386 250.636522 
L 156.731932 250.636522 
z
" style="fill:#62fbc4;opacity:0.5;"/>
   </g>
   <g id="patch_45">
    <path clip-path="url(#pa4c2416cb0)" d="M 189.197386 288.482625 
L 221.662841 288.482625 
L 221.662841 287.193748 
L 189.197386 287.193748 
z
" style="fill:#62fbc4;opacity:0.5;"/>
   </g>
   <g id="patch_46">
    <path clip-path="url(#pa4c2416cb0)" d="M 221.662841 288.482625 
L 254.128295 288.482625 
L 254.128295 160.297993 
L 221.662841 160.297993 
z
" style="fill:#62fbc4;opacity:0.5;"/>
   </g>
   <g id="patch_47">
    <path clip-path="url(#pa4c2416cb0)" d="M 254.128295 288.482625 
L 286.59375 288.482625 
L 286.59375 250.050669 
L 254.128295 250.050669 
z
" style="fill:#62fbc4;opacity:0.5;"/>
   </g>
   <g id="patch_48">
    <path clip-path="url(#pa4c2416cb0)" d="M 286.59375 288.482625 
L 319.059205 288.482625 
L 319.059205 234.818492 
L 286.59375 234.818492 
z
" style="fill:#62fbc4;opacity:0.5;"/>
   </g>
   <g id="patch_49">
    <path clip-path="url(#pa4c2416cb0)" d="M 319.059205 288.482625 
L 351.524659 288.482625 
L 351.524659 287.662431 
L 319.059205 287.662431 
z
" style="fill:#62fbc4;opacity:0.5;"/>
   </g>
   <g id="patch_50">
    <path clip-path="url(#pa4c2416cb0)" d="M 351.524659 288.482625 
L 383.990114 288.482625 
L 383.990114 281.56956 
L 351.524659 281.56956 
z
" style="fill:#62fbc4;opacity:0.5;"/>
   </g>
   <g id="patch_51">
    <path clip-path="url(#pa4c2416cb0)" d="M 383.990114 288.482625 
L 416.455568 288.482625 
L 416.455568 280.515024 
L 383.990114 280.515024 
z
" style="fill:#62fbc4;opacity:0.5;"/>
   </g>
   <g id="patch_52">
    <path clip-path="url(#pa4c2416cb0)" d="M 416.455568 288.482625 
L 448.921023 288.482625 
L 448.921023 140.730503 
L 416.455568 140.730503 
z
" style="fill:#62fbc4;opacity:0.5;"/>
   </g>
   <g id="patch_53">
    <path clip-path="url(#pa4c2416cb0)" d="M 124.266477 288.482625 
L 156.731932 288.482625 
L 156.731932 256.260711 
L 124.266477 256.260711 
z
" style="fill:#9cfba4;opacity:0.5;"/>
   </g>
   <g id="patch_54">
    <path clip-path="url(#pa4c2416cb0)" d="M 156.731932 288.482625 
L 189.197386 288.482625 
L 189.197386 259.775829 
L 156.731932 259.775829 
z
" style="fill:#9cfba4;opacity:0.5;"/>
   </g>
   <g id="patch_55">
    <path clip-path="url(#pa4c2416cb0)" d="M 189.197386 288.482625 
L 221.662841 288.482625 
L 221.662841 287.779601 
L 189.197386 287.779601 
z
" style="fill:#9cfba4;opacity:0.5;"/>
   </g>
   <g id="patch_56">
    <path clip-path="url(#pa4c2416cb0)" d="M 221.662841 288.482625 
L 254.128295 288.482625 
L 254.128295 180.920018 
L 221.662841 180.920018 
z
" style="fill:#9cfba4;opacity:0.5;"/>
   </g>
   <g id="patch_57">
    <path clip-path="url(#pa4c2416cb0)" d="M 254.128295 288.482625 
L 286.59375 288.482625 
L 286.59375 258.135441 
L 254.128295 258.135441 
z
" style="fill:#9cfba4;opacity:0.5;"/>
   </g>
   <g id="patch_58">
    <path clip-path="url(#pa4c2416cb0)" d="M 286.59375 288.482625 
L 319.059205 288.482625 
L 319.059205 244.19214 
L 286.59375 244.19214 
z
" style="fill:#9cfba4;opacity:0.5;"/>
   </g>
   <g id="patch_59">
    <path clip-path="url(#pa4c2416cb0)" d="M 319.059205 288.482625 
L 351.524659 288.482625 
L 351.524659 287.42809 
L 319.059205 287.42809 
z
" style="fill:#9cfba4;opacity:0.5;"/>
   </g>
   <g id="patch_60">
    <path clip-path="url(#pa4c2416cb0)" d="M 351.524659 288.482625 
L 383.990114 288.482625 
L 383.990114 278.054442 
L 351.524659 278.054442 
z
" style="fill:#9cfba4;opacity:0.5;"/>
   </g>
   <g id="patch_61">
    <path clip-path="url(#pa4c2416cb0)" d="M 383.990114 288.482625 
L 416.455568 288.482625 
L 416.455568 277.70293 
L 383.990114 277.70293 
z
" style="fill:#9cfba4;opacity:0.5;"/>
   </g>
   <g id="patch_62">
    <path clip-path="url(#pa4c2416cb0)" d="M 416.455568 288.482625 
L 448.921023 288.482625 
L 448.921023 127.607396 
L 416.455568 127.607396 
z
" style="fill:#9cfba4;opacity:0.5;"/>
   </g>
   <g id="patch_63">
    <path clip-path="url(#pa4c2416cb0)" d="M 124.266477 288.482625 
L 156.731932 288.482625 
L 156.731932 259.658658 
L 124.266477 259.658658 
z
" style="fill:#d4dd80;opacity:0.5;"/>
   </g>
   <g id="patch_64">
    <path clip-path="url(#pa4c2416cb0)" d="M 156.731932 288.482625 
L 189.197386 288.482625 
L 189.197386 259.775829 
L 156.731932 259.775829 
z
" style="fill:#d4dd80;opacity:0.5;"/>
   </g>
   <g id="patch_65">
    <path clip-path="url(#pa4c2416cb0)" d="M 189.197386 288.482625 
L 221.662841 288.482625 
L 221.662841 287.779601 
L 189.197386 287.779601 
z
" style="fill:#d4dd80;opacity:0.5;"/>
   </g>
   <g id="patch_66">
    <path clip-path="url(#pa4c2416cb0)" d="M 221.662841 288.482625 
L 254.128295 288.482625 
L 254.128295 185.138159 
L 221.662841 185.138159 
z
" style="fill:#d4dd80;opacity:0.5;"/>
   </g>
   <g id="patch_67">
    <path clip-path="url(#pa4c2416cb0)" d="M 254.128295 288.482625 
L 286.59375 288.482625 
L 286.59375 257.315246 
L 254.128295 257.315246 
z
" style="fill:#d4dd80;opacity:0.5;"/>
   </g>
   <g id="patch_68">
    <path clip-path="url(#pa4c2416cb0)" d="M 286.59375 288.482625 
L 319.059205 288.482625 
L 319.059205 247.355746 
L 286.59375 247.355746 
z
" style="fill:#d4dd80;opacity:0.5;"/>
   </g>
   <g id="patch_69">
    <path clip-path="url(#pa4c2416cb0)" d="M 319.059205 288.482625 
L 351.524659 288.482625 
L 351.524659 287.662431 
L 319.059205 287.662431 
z
" style="fill:#d4dd80;opacity:0.5;"/>
   </g>
   <g id="patch_70">
    <path clip-path="url(#pa4c2416cb0)" d="M 351.524659 288.482625 
L 383.990114 288.482625 
L 383.990114 282.389754 
L 351.524659 282.389754 
z
" style="fill:#d4dd80;opacity:0.5;"/>
   </g>
   <g id="patch_71">
    <path clip-path="url(#pa4c2416cb0)" d="M 383.990114 288.482625 
L 416.455568 288.482625 
L 416.455568 281.335219 
L 383.990114 281.335219 
z
" style="fill:#d4dd80;opacity:0.5;"/>
   </g>
   <g id="patch_72">
    <path clip-path="url(#pa4c2416cb0)" d="M 416.455568 288.482625 
L 448.921023 288.482625 
L 448.921023 65.858492 
L 416.455568 65.858492 
z
" style="fill:#d4dd80;opacity:0.5;"/>
   </g>
   <g id="patch_73">
    <path clip-path="url(#pa4c2416cb0)" d="M 124.266477 288.482625 
L 156.731932 288.482625 
L 156.731932 274.539324 
L 124.266477 274.539324 
z
" style="fill:#ffa256;opacity:0.5;"/>
   </g>
   <g id="patch_74">
    <path clip-path="url(#pa4c2416cb0)" d="M 156.731932 288.482625 
L 189.197386 288.482625 
L 189.197386 269.73533 
L 156.731932 269.73533 
z
" style="fill:#ffa256;opacity:0.5;"/>
   </g>
   <g id="patch_75">
    <path clip-path="url(#pa4c2416cb0)" d="M 189.197386 288.482625 
L 221.662841 288.482625 
L 221.662841 288.013943 
L 189.197386 288.013943 
z
" style="fill:#ffa256;opacity:0.5;"/>
   </g>
   <g id="patch_76">
    <path clip-path="url(#pa4c2416cb0)" d="M 221.662841 288.482625 
L 254.128295 288.482625 
L 254.128295 234.349809 
L 221.662841 234.349809 
z
" style="fill:#ffa256;opacity:0.5;"/>
   </g>
   <g id="patch_77">
    <path clip-path="url(#pa4c2416cb0)" d="M 254.128295 288.482625 
L 286.59375 288.482625 
L 286.59375 259.775829 
L 254.128295 259.775829 
z
" style="fill:#ffa256;opacity:0.5;"/>
   </g>
   <g id="patch_78">
    <path clip-path="url(#pa4c2416cb0)" d="M 286.59375 288.482625 
L 319.059205 288.482625 
L 319.059205 244.777993 
L 286.59375 244.777993 
z
" style="fill:#ffa256;opacity:0.5;"/>
   </g>
   <g id="patch_79">
    <path clip-path="url(#pa4c2416cb0)" d="M 319.059205 288.482625 
L 351.524659 288.482625 
L 351.524659 286.256384 
L 319.059205 286.256384 
z
" style="fill:#ffa256;opacity:0.5;"/>
   </g>
   <g id="patch_80">
    <path clip-path="url(#pa4c2416cb0)" d="M 351.524659 288.482625 
L 383.990114 288.482625 
L 383.990114 267.040406 
L 351.524659 267.040406 
z
" style="fill:#ffa256;opacity:0.5;"/>
   </g>
   <g id="patch_81">
    <path clip-path="url(#pa4c2416cb0)" d="M 383.990114 288.482625 
L 416.455568 288.482625 
L 416.455568 275.476689 
L 383.990114 275.476689 
z
" style="fill:#ffa256;opacity:0.5;"/>
   </g>
   <g id="patch_82">
    <path clip-path="url(#pa4c2416cb0)" d="M 416.455568 288.482625 
L 448.921023 288.482625 
L 448.921023 163.461599 
L 416.455568 163.461599 
z
" style="fill:#ffa256;opacity:0.5;"/>
   </g>
   <g id="patch_83">
    <path clip-path="url(#pa4c2416cb0)" d="M 124.266477 288.482625 
L 156.731932 288.482625 
L 156.731932 277.468589 
L 124.266477 277.468589 
z
" style="fill:#ff562c;opacity:0.5;"/>
   </g>
   <g id="patch_84">
    <path clip-path="url(#pa4c2416cb0)" d="M 156.731932 288.482625 
L 189.197386 288.482625 
L 189.197386 281.452389 
L 156.731932 281.452389 
z
" style="fill:#ff562c;opacity:0.5;"/>
   </g>
   <g id="patch_85">
    <path clip-path="url(#pa4c2416cb0)" d="M 189.197386 288.482625 
L 221.662841 288.482625 
L 221.662841 287.662431 
L 189.197386 287.662431 
z
" style="fill:#ff562c;opacity:0.5;"/>
   </g>
   <g id="patch_86">
    <path clip-path="url(#pa4c2416cb0)" d="M 221.662841 288.482625 
L 254.128295 288.482625 
L 254.128295 232.123568 
L 221.662841 232.123568 
z
" style="fill:#ff562c;opacity:0.5;"/>
   </g>
   <g id="patch_87">
    <path clip-path="url(#pa4c2416cb0)" d="M 254.128295 288.482625 
L 286.59375 288.482625 
L 286.59375 258.369782 
L 254.128295 258.369782 
z
" style="fill:#ff562c;opacity:0.5;"/>
   </g>
   <g id="patch_88">
    <path clip-path="url(#pa4c2416cb0)" d="M 286.59375 288.482625 
L 319.059205 288.482625 
L 319.059205 253.448617 
L 286.59375 253.448617 
z
" style="fill:#ff562c;opacity:0.5;"/>
   </g>
   <g id="patch_89">
    <path clip-path="url(#pa4c2416cb0)" d="M 319.059205 288.482625 
L 351.524659 288.482625 
L 351.524659 286.022042 
L 319.059205 286.022042 
z
" style="fill:#ff562c;opacity:0.5;"/>
   </g>
   <g id="patch_90">
    <path clip-path="url(#pa4c2416cb0)" d="M 351.524659 288.482625 
L 383.990114 288.482625 
L 383.990114 275.242348 
L 351.524659 275.242348 
z
" style="fill:#ff562c;opacity:0.5;"/>
   </g>
   <g id="patch_91">
    <path clip-path="url(#pa4c2416cb0)" d="M 383.990114 288.482625 
L 416.455568 288.482625 
L 416.455568 273.250447 
L 383.990114 273.250447 
z
" style="fill:#ff562c;opacity:0.5;"/>
   </g>
   <g id="patch_92">
    <path clip-path="url(#pa4c2416cb0)" d="M 416.455568 288.482625 
L 448.921023 288.482625 
L 448.921023 183.3806 
L 416.455568 183.3806 
z
" style="fill:#ff562c;opacity:0.5;"/>
   </g>
   <g id="patch_93">
    <path clip-path="url(#pa4c2416cb0)" d="M 124.266477 288.482625 
L 156.731932 288.482625 
L 156.731932 281.921072 
L 124.266477 281.921072 
z
" style="fill:#ff0000;opacity:0.5;"/>
   </g>
   <g id="patch_94">
    <path clip-path="url(#pa4c2416cb0)" d="M 156.731932 288.482625 
L 189.197386 288.482625 
L 189.197386 279.57766 
L 156.731932 279.57766 
z
" style="fill:#ff0000;opacity:0.5;"/>
   </g>
   <g id="patch_95">
    <path clip-path="url(#pa4c2416cb0)" d="M 189.197386 288.482625 
L 221.662841 288.482625 
L 221.662841 288.248284 
L 189.197386 288.248284 
z
" style="fill:#ff0000;opacity:0.5;"/>
   </g>
   <g id="patch_96">
    <path clip-path="url(#pa4c2416cb0)" d="M 221.662841 288.482625 
L 254.128295 288.482625 
L 254.128295 223.687285 
L 221.662841 223.687285 
z
" style="fill:#ff0000;opacity:0.5;"/>
   </g>
   <g id="patch_97">
    <path clip-path="url(#pa4c2416cb0)" d="M 254.128295 288.482625 
L 286.59375 288.482625 
L 286.59375 256.260711 
L 254.128295 256.260711 
z
" style="fill:#ff0000;opacity:0.5;"/>
   </g>
   <g id="patch_98">
    <path clip-path="url(#pa4c2416cb0)" d="M 286.59375 288.482625 
L 319.059205 288.482625 
L 319.059205 242.786092 
L 286.59375 242.786092 
z
" style="fill:#ff0000;opacity:0.5;"/>
   </g>
   <g id="patch_99">
    <path clip-path="url(#pa4c2416cb0)" d="M 319.059205 288.482625 
L 351.524659 288.482625 
L 351.524659 286.959407 
L 319.059205 286.959407 
z
" style="fill:#ff0000;opacity:0.5;"/>
   </g>
   <g id="patch_100">
    <path clip-path="url(#pa4c2416cb0)" d="M 351.524659 288.482625 
L 383.990114 288.482625 
L 383.990114 274.539324 
L 351.524659 274.539324 
z
" style="fill:#ff0000;opacity:0.5;"/>
   </g>
   <g id="patch_101">
    <path clip-path="url(#pa4c2416cb0)" d="M 383.990114 288.482625 
L 416.455568 288.482625 
L 416.455568 281.335219 
L 383.990114 281.335219 
z
" style="fill:#ff0000;opacity:0.5;"/>
   </g>
   <g id="patch_102">
    <path clip-path="url(#pa4c2416cb0)" d="M 416.455568 288.482625 
L 448.921023 288.482625 
L 448.921023 145.886009 
L 416.455568 145.886009 
z
" style="fill:#ff0000;opacity:0.5;"/>
   </g>
   <g id="matplotlib.axis_1">
    <g id="xtick_1">
     <g id="line2d_1">
      <path clip-path="url(#pa4c2416cb0)" d="M 124.266477 288.482625 
L 124.266477 22.370625 
" style="fill:none;stroke:#b0b0b0;stroke-linecap:square;stroke-width:0.8;"/>
     </g>
     <g id="line2d_2">
      <defs>
       <path d="M 0 0 
L 0 3.5 
" id="m7b100f3b90" style="stroke:#000000;stroke-width:0.8;"/>
      </defs>
      <g>
       <use style="stroke:#000000;stroke-width:0.8;" x="124.266477" xlink:href="#m7b100f3b90" y="288.482625"/>
      </g>
     </g>
     <g id="text_1">
      <!-- 0 -->
      <defs>
       <path d="M 31.78125 66.40625 
Q 24.171875 66.40625 20.328125 58.90625 
Q 16.5 51.421875 16.5 36.375 
Q 16.5 21.390625 20.328125 13.890625 
Q 24.171875 6.390625 31.78125 6.390625 
Q 39.453125 6.390625 43.28125 13.890625 
Q 47.125 21.390625 47.125 36.375 
Q 47.125 51.421875 43.28125 58.90625 
Q 39.453125 66.40625 31.78125 66.40625 
z
M 31.78125 74.21875 
Q 44.046875 74.21875 50.515625 64.515625 
Q 56.984375 54.828125 56.984375 36.375 
Q 56.984375 17.96875 50.515625 8.265625 
Q 44.046875 -1.421875 31.78125 -1.421875 
Q 19.53125 -1.421875 13.0625 8.265625 
Q 6.59375 17.96875 6.59375 36.375 
Q 6.59375 54.828125 13.0625 64.515625 
Q 19.53125 74.21875 31.78125 74.21875 
z
" id="DejaVuSans-30"/>
      </defs>
      <g transform="translate(121.085227 303.081062)scale(0.1 -0.1)">
       <use xlink:href="#DejaVuSans-30"/>
      </g>
     </g>
    </g>
    <g id="xtick_2">
     <g id="line2d_3">
      <path clip-path="url(#pa4c2416cb0)" d="M 156.731932 288.482625 
L 156.731932 22.370625 
" style="fill:none;stroke:#b0b0b0;stroke-linecap:square;stroke-width:0.8;"/>
     </g>
     <g id="line2d_4">
      <g>
       <use style="stroke:#000000;stroke-width:0.8;" x="156.731932" xlink:href="#m7b100f3b90" y="288.482625"/>
      </g>
     </g>
     <g id="text_2">
      <!-- 1000 -->
      <defs>
       <path d="M 12.40625 8.296875 
L 28.515625 8.296875 
L 28.515625 63.921875 
L 10.984375 60.40625 
L 10.984375 69.390625 
L 28.421875 72.90625 
L 38.28125 72.90625 
L 38.28125 8.296875 
L 54.390625 8.296875 
L 54.390625 0 
L 12.40625 0 
z
" id="DejaVuSans-31"/>
      </defs>
      <g transform="translate(144.006932 303.081062)scale(0.1 -0.1)">
       <use xlink:href="#DejaVuSans-31"/>
       <use x="63.623047" xlink:href="#DejaVuSans-30"/>
       <use x="127.246094" xlink:href="#DejaVuSans-30"/>
       <use x="190.869141" xlink:href="#DejaVuSans-30"/>
      </g>
     </g>
    </g>
    <g id="xtick_3">
     <g id="line2d_5">
      <path clip-path="url(#pa4c2416cb0)" d="M 189.197386 288.482625 
L 189.197386 22.370625 
" style="fill:none;stroke:#b0b0b0;stroke-linecap:square;stroke-width:0.8;"/>
     </g>
     <g id="line2d_6">
      <g>
       <use style="stroke:#000000;stroke-width:0.8;" x="189.197386" xlink:href="#m7b100f3b90" y="288.482625"/>
      </g>
     </g>
     <g id="text_3">
      <!-- 2000 -->
      <defs>
       <path d="M 19.1875 8.296875 
L 53.609375 8.296875 
L 53.609375 0 
L 7.328125 0 
L 7.328125 8.296875 
Q 12.9375 14.109375 22.625 23.890625 
Q 32.328125 33.6875 34.8125 36.53125 
Q 39.546875 41.84375 41.421875 45.53125 
Q 43.3125 49.21875 43.3125 52.78125 
Q 43.3125 58.59375 39.234375 62.25 
Q 35.15625 65.921875 28.609375 65.921875 
Q 23.96875 65.921875 18.8125 64.3125 
Q 13.671875 62.703125 7.8125 59.421875 
L 7.8125 69.390625 
Q 13.765625 71.78125 18.9375 73 
Q 24.125 74.21875 28.421875 74.21875 
Q 39.75 74.21875 46.484375 68.546875 
Q 53.21875 62.890625 53.21875 53.421875 
Q 53.21875 48.921875 51.53125 44.890625 
Q 49.859375 40.875 45.40625 35.40625 
Q 44.1875 33.984375 37.640625 27.21875 
Q 31.109375 20.453125 19.1875 8.296875 
z
" id="DejaVuSans-32"/>
      </defs>
      <g transform="translate(176.472386 303.081062)scale(0.1 -0.1)">
       <use xlink:href="#DejaVuSans-32"/>
       <use x="63.623047" xlink:href="#DejaVuSans-30"/>
       <use x="127.246094" xlink:href="#DejaVuSans-30"/>
       <use x="190.869141" xlink:href="#DejaVuSans-30"/>
      </g>
     </g>
    </g>
    <g id="xtick_4">
     <g id="line2d_7">
      <path clip-path="url(#pa4c2416cb0)" d="M 221.662841 288.482625 
L 221.662841 22.370625 
" style="fill:none;stroke:#b0b0b0;stroke-linecap:square;stroke-width:0.8;"/>
     </g>
     <g id="line2d_8">
      <g>
       <use style="stroke:#000000;stroke-width:0.8;" x="221.662841" xlink:href="#m7b100f3b90" y="288.482625"/>
      </g>
     </g>
     <g id="text_4">
      <!-- 3000 -->
      <defs>
       <path d="M 40.578125 39.3125 
Q 47.65625 37.796875 51.625 33 
Q 55.609375 28.21875 55.609375 21.1875 
Q 55.609375 10.40625 48.1875 4.484375 
Q 40.765625 -1.421875 27.09375 -1.421875 
Q 22.515625 -1.421875 17.65625 -0.515625 
Q 12.796875 0.390625 7.625 2.203125 
L 7.625 11.71875 
Q 11.71875 9.328125 16.59375 8.109375 
Q 21.484375 6.890625 26.8125 6.890625 
Q 36.078125 6.890625 40.9375 10.546875 
Q 45.796875 14.203125 45.796875 21.1875 
Q 45.796875 27.640625 41.28125 31.265625 
Q 36.765625 34.90625 28.71875 34.90625 
L 20.21875 34.90625 
L 20.21875 43.015625 
L 29.109375 43.015625 
Q 36.375 43.015625 40.234375 45.921875 
Q 44.09375 48.828125 44.09375 54.296875 
Q 44.09375 59.90625 40.109375 62.90625 
Q 36.140625 65.921875 28.71875 65.921875 
Q 24.65625 65.921875 20.015625 65.03125 
Q 15.375 64.15625 9.8125 62.3125 
L 9.8125 71.09375 
Q 15.4375 72.65625 20.34375 73.4375 
Q 25.25 74.21875 29.59375 74.21875 
Q 40.828125 74.21875 47.359375 69.109375 
Q 53.90625 64.015625 53.90625 55.328125 
Q 53.90625 49.265625 50.4375 45.09375 
Q 46.96875 40.921875 40.578125 39.3125 
z
" id="DejaVuSans-33"/>
      </defs>
      <g transform="translate(208.937841 303.081062)scale(0.1 -0.1)">
       <use xlink:href="#DejaVuSans-33"/>
       <use x="63.623047" xlink:href="#DejaVuSans-30"/>
       <use x="127.246094" xlink:href="#DejaVuSans-30"/>
       <use x="190.869141" xlink:href="#DejaVuSans-30"/>
      </g>
     </g>
    </g>
    <g id="xtick_5">
     <g id="line2d_9">
      <path clip-path="url(#pa4c2416cb0)" d="M 254.128295 288.482625 
L 254.128295 22.370625 
" style="fill:none;stroke:#b0b0b0;stroke-linecap:square;stroke-width:0.8;"/>
     </g>
     <g id="line2d_10">
      <g>
       <use style="stroke:#000000;stroke-width:0.8;" x="254.128295" xlink:href="#m7b100f3b90" y="288.482625"/>
      </g>
     </g>
     <g id="text_5">
      <!-- 4000 -->
      <defs>
       <path d="M 37.796875 64.3125 
L 12.890625 25.390625 
L 37.796875 25.390625 
z
M 35.203125 72.90625 
L 47.609375 72.90625 
L 47.609375 25.390625 
L 58.015625 25.390625 
L 58.015625 17.1875 
L 47.609375 17.1875 
L 47.609375 0 
L 37.796875 0 
L 37.796875 17.1875 
L 4.890625 17.1875 
L 4.890625 26.703125 
z
" id="DejaVuSans-34"/>
      </defs>
      <g transform="translate(241.403295 303.081062)scale(0.1 -0.1)">
       <use xlink:href="#DejaVuSans-34"/>
       <use x="63.623047" xlink:href="#DejaVuSans-30"/>
       <use x="127.246094" xlink:href="#DejaVuSans-30"/>
       <use x="190.869141" xlink:href="#DejaVuSans-30"/>
      </g>
     </g>
    </g>
    <g id="xtick_6">
     <g id="line2d_11">
      <path clip-path="url(#pa4c2416cb0)" d="M 286.59375 288.482625 
L 286.59375 22.370625 
" style="fill:none;stroke:#b0b0b0;stroke-linecap:square;stroke-width:0.8;"/>
     </g>
     <g id="line2d_12">
      <g>
       <use style="stroke:#000000;stroke-width:0.8;" x="286.59375" xlink:href="#m7b100f3b90" y="288.482625"/>
      </g>
     </g>
     <g id="text_6">
      <!-- 5000 -->
      <defs>
       <path d="M 10.796875 72.90625 
L 49.515625 72.90625 
L 49.515625 64.59375 
L 19.828125 64.59375 
L 19.828125 46.734375 
Q 21.96875 47.46875 24.109375 47.828125 
Q 26.265625 48.1875 28.421875 48.1875 
Q 40.625 48.1875 47.75 41.5 
Q 54.890625 34.8125 54.890625 23.390625 
Q 54.890625 11.625 47.5625 5.09375 
Q 40.234375 -1.421875 26.90625 -1.421875 
Q 22.3125 -1.421875 17.546875 -0.640625 
Q 12.796875 0.140625 7.71875 1.703125 
L 7.71875 11.625 
Q 12.109375 9.234375 16.796875 8.0625 
Q 21.484375 6.890625 26.703125 6.890625 
Q 35.15625 6.890625 40.078125 11.328125 
Q 45.015625 15.765625 45.015625 23.390625 
Q 45.015625 31 40.078125 35.4375 
Q 35.15625 39.890625 26.703125 39.890625 
Q 22.75 39.890625 18.8125 39.015625 
Q 14.890625 38.140625 10.796875 36.28125 
z
" id="DejaVuSans-35"/>
      </defs>
      <g transform="translate(273.86875 303.081062)scale(0.1 -0.1)">
       <use xlink:href="#DejaVuSans-35"/>
       <use x="63.623047" xlink:href="#DejaVuSans-30"/>
       <use x="127.246094" xlink:href="#DejaVuSans-30"/>
       <use x="190.869141" xlink:href="#DejaVuSans-30"/>
      </g>
     </g>
    </g>
    <g id="xtick_7">
     <g id="line2d_13">
      <path clip-path="url(#pa4c2416cb0)" d="M 319.059205 288.482625 
L 319.059205 22.370625 
" style="fill:none;stroke:#b0b0b0;stroke-linecap:square;stroke-width:0.8;"/>
     </g>
     <g id="line2d_14">
      <g>
       <use style="stroke:#000000;stroke-width:0.8;" x="319.059205" xlink:href="#m7b100f3b90" y="288.482625"/>
      </g>
     </g>
     <g id="text_7">
      <!-- 6000 -->
      <defs>
       <path d="M 33.015625 40.375 
Q 26.375 40.375 22.484375 35.828125 
Q 18.609375 31.296875 18.609375 23.390625 
Q 18.609375 15.53125 22.484375 10.953125 
Q 26.375 6.390625 33.015625 6.390625 
Q 39.65625 6.390625 43.53125 10.953125 
Q 47.40625 15.53125 47.40625 23.390625 
Q 47.40625 31.296875 43.53125 35.828125 
Q 39.65625 40.375 33.015625 40.375 
z
M 52.59375 71.296875 
L 52.59375 62.3125 
Q 48.875 64.0625 45.09375 64.984375 
Q 41.3125 65.921875 37.59375 65.921875 
Q 27.828125 65.921875 22.671875 59.328125 
Q 17.53125 52.734375 16.796875 39.40625 
Q 19.671875 43.65625 24.015625 45.921875 
Q 28.375 48.1875 33.59375 48.1875 
Q 44.578125 48.1875 50.953125 41.515625 
Q 57.328125 34.859375 57.328125 23.390625 
Q 57.328125 12.15625 50.6875 5.359375 
Q 44.046875 -1.421875 33.015625 -1.421875 
Q 20.359375 -1.421875 13.671875 8.265625 
Q 6.984375 17.96875 6.984375 36.375 
Q 6.984375 53.65625 15.1875 63.9375 
Q 23.390625 74.21875 37.203125 74.21875 
Q 40.921875 74.21875 44.703125 73.484375 
Q 48.484375 72.75 52.59375 71.296875 
z
" id="DejaVuSans-36"/>
      </defs>
      <g transform="translate(306.334205 303.081062)scale(0.1 -0.1)">
       <use xlink:href="#DejaVuSans-36"/>
       <use x="63.623047" xlink:href="#DejaVuSans-30"/>
       <use x="127.246094" xlink:href="#DejaVuSans-30"/>
       <use x="190.869141" xlink:href="#DejaVuSans-30"/>
      </g>
     </g>
    </g>
    <g id="xtick_8">
     <g id="line2d_15">
      <path clip-path="url(#pa4c2416cb0)" d="M 351.524659 288.482625 
L 351.524659 22.370625 
" style="fill:none;stroke:#b0b0b0;stroke-linecap:square;stroke-width:0.8;"/>
     </g>
     <g id="line2d_16">
      <g>
       <use style="stroke:#000000;stroke-width:0.8;" x="351.524659" xlink:href="#m7b100f3b90" y="288.482625"/>
      </g>
     </g>
     <g id="text_8">
      <!-- 7000 -->
      <defs>
       <path d="M 8.203125 72.90625 
L 55.078125 72.90625 
L 55.078125 68.703125 
L 28.609375 0 
L 18.3125 0 
L 43.21875 64.59375 
L 8.203125 64.59375 
z
" id="DejaVuSans-37"/>
      </defs>
      <g transform="translate(338.799659 303.081062)scale(0.1 -0.1)">
       <use xlink:href="#DejaVuSans-37"/>
       <use x="63.623047" xlink:href="#DejaVuSans-30"/>
       <use x="127.246094" xlink:href="#DejaVuSans-30"/>
       <use x="190.869141" xlink:href="#DejaVuSans-30"/>
      </g>
     </g>
    </g>
    <g id="xtick_9">
     <g id="line2d_17">
      <path clip-path="url(#pa4c2416cb0)" d="M 383.990114 288.482625 
L 383.990114 22.370625 
" style="fill:none;stroke:#b0b0b0;stroke-linecap:square;stroke-width:0.8;"/>
     </g>
     <g id="line2d_18">
      <g>
       <use style="stroke:#000000;stroke-width:0.8;" x="383.990114" xlink:href="#m7b100f3b90" y="288.482625"/>
      </g>
     </g>
     <g id="text_9">
      <!-- 8000 -->
      <defs>
       <path d="M 31.78125 34.625 
Q 24.75 34.625 20.71875 30.859375 
Q 16.703125 27.09375 16.703125 20.515625 
Q 16.703125 13.921875 20.71875 10.15625 
Q 24.75 6.390625 31.78125 6.390625 
Q 38.8125 6.390625 42.859375 10.171875 
Q 46.921875 13.96875 46.921875 20.515625 
Q 46.921875 27.09375 42.890625 30.859375 
Q 38.875 34.625 31.78125 34.625 
z
M 21.921875 38.8125 
Q 15.578125 40.375 12.03125 44.71875 
Q 8.5 49.078125 8.5 55.328125 
Q 8.5 64.0625 14.71875 69.140625 
Q 20.953125 74.21875 31.78125 74.21875 
Q 42.671875 74.21875 48.875 69.140625 
Q 55.078125 64.0625 55.078125 55.328125 
Q 55.078125 49.078125 51.53125 44.71875 
Q 48 40.375 41.703125 38.8125 
Q 48.828125 37.15625 52.796875 32.3125 
Q 56.78125 27.484375 56.78125 20.515625 
Q 56.78125 9.90625 50.3125 4.234375 
Q 43.84375 -1.421875 31.78125 -1.421875 
Q 19.734375 -1.421875 13.25 4.234375 
Q 6.78125 9.90625 6.78125 20.515625 
Q 6.78125 27.484375 10.78125 32.3125 
Q 14.796875 37.15625 21.921875 38.8125 
z
M 18.3125 54.390625 
Q 18.3125 48.734375 21.84375 45.5625 
Q 25.390625 42.390625 31.78125 42.390625 
Q 38.140625 42.390625 41.71875 45.5625 
Q 45.3125 48.734375 45.3125 54.390625 
Q 45.3125 60.0625 41.71875 63.234375 
Q 38.140625 66.40625 31.78125 66.40625 
Q 25.390625 66.40625 21.84375 63.234375 
Q 18.3125 60.0625 18.3125 54.390625 
z
" id="DejaVuSans-38"/>
      </defs>
      <g transform="translate(371.265114 303.081062)scale(0.1 -0.1)">
       <use xlink:href="#DejaVuSans-38"/>
       <use x="63.623047" xlink:href="#DejaVuSans-30"/>
       <use x="127.246094" xlink:href="#DejaVuSans-30"/>
       <use x="190.869141" xlink:href="#DejaVuSans-30"/>
      </g>
     </g>
    </g>
    <g id="xtick_10">
     <g id="line2d_19">
      <path clip-path="url(#pa4c2416cb0)" d="M 416.455568 288.482625 
L 416.455568 22.370625 
" style="fill:none;stroke:#b0b0b0;stroke-linecap:square;stroke-width:0.8;"/>
     </g>
     <g id="line2d_20">
      <g>
       <use style="stroke:#000000;stroke-width:0.8;" x="416.455568" xlink:href="#m7b100f3b90" y="288.482625"/>
      </g>
     </g>
     <g id="text_10">
      <!-- 9000 -->
      <defs>
       <path d="M 10.984375 1.515625 
L 10.984375 10.5 
Q 14.703125 8.734375 18.5 7.8125 
Q 22.3125 6.890625 25.984375 6.890625 
Q 35.75 6.890625 40.890625 13.453125 
Q 46.046875 20.015625 46.78125 33.40625 
Q 43.953125 29.203125 39.59375 26.953125 
Q 35.25 24.703125 29.984375 24.703125 
Q 19.046875 24.703125 12.671875 31.3125 
Q 6.296875 37.9375 6.296875 49.421875 
Q 6.296875 60.640625 12.9375 67.421875 
Q 19.578125 74.21875 30.609375 74.21875 
Q 43.265625 74.21875 49.921875 64.515625 
Q 56.59375 54.828125 56.59375 36.375 
Q 56.59375 19.140625 48.40625 8.859375 
Q 40.234375 -1.421875 26.421875 -1.421875 
Q 22.703125 -1.421875 18.890625 -0.6875 
Q 15.09375 0.046875 10.984375 1.515625 
z
M 30.609375 32.421875 
Q 37.25 32.421875 41.125 36.953125 
Q 45.015625 41.5 45.015625 49.421875 
Q 45.015625 57.28125 41.125 61.84375 
Q 37.25 66.40625 30.609375 66.40625 
Q 23.96875 66.40625 20.09375 61.84375 
Q 16.21875 57.28125 16.21875 49.421875 
Q 16.21875 41.5 20.09375 36.953125 
Q 23.96875 32.421875 30.609375 32.421875 
z
" id="DejaVuSans-39"/>
      </defs>
      <g transform="translate(403.730568 303.081062)scale(0.1 -0.1)">
       <use xlink:href="#DejaVuSans-39"/>
       <use x="63.623047" xlink:href="#DejaVuSans-30"/>
       <use x="127.246094" xlink:href="#DejaVuSans-30"/>
       <use x="190.869141" xlink:href="#DejaVuSans-30"/>
      </g>
     </g>
    </g>
    <g id="xtick_11">
     <g id="line2d_21">
      <path clip-path="url(#pa4c2416cb0)" d="M 448.921023 288.482625 
L 448.921023 22.370625 
" style="fill:none;stroke:#b0b0b0;stroke-linecap:square;stroke-width:0.8;"/>
     </g>
     <g id="line2d_22">
      <g>
       <use style="stroke:#000000;stroke-width:0.8;" x="448.921023" xlink:href="#m7b100f3b90" y="288.482625"/>
      </g>
     </g>
     <g id="text_11">
      <!-- 10000 -->
      <g transform="translate(433.014773 303.081062)scale(0.1 -0.1)">
       <use xlink:href="#DejaVuSans-31"/>
       <use x="63.623047" xlink:href="#DejaVuSans-30"/>
       <use x="127.246094" xlink:href="#DejaVuSans-30"/>
       <use x="190.869141" xlink:href="#DejaVuSans-30"/>
       <use x="254.492188" xlink:href="#DejaVuSans-30"/>
      </g>
     </g>
    </g>
    <g id="text_12">
     <!-- Episodic Reward -->
     <defs>
      <path d="M 9.8125 72.90625 
L 55.90625 72.90625 
L 55.90625 64.59375 
L 19.671875 64.59375 
L 19.671875 43.015625 
L 54.390625 43.015625 
L 54.390625 34.71875 
L 19.671875 34.71875 
L 19.671875 8.296875 
L 56.78125 8.296875 
L 56.78125 0 
L 9.8125 0 
z
" id="DejaVuSans-45"/>
      <path d="M 18.109375 8.203125 
L 18.109375 -20.796875 
L 9.078125 -20.796875 
L 9.078125 54.6875 
L 18.109375 54.6875 
L 18.109375 46.390625 
Q 20.953125 51.265625 25.265625 53.625 
Q 29.59375 56 35.59375 56 
Q 45.5625 56 51.78125 48.09375 
Q 58.015625 40.1875 58.015625 27.296875 
Q 58.015625 14.40625 51.78125 6.484375 
Q 45.5625 -1.421875 35.59375 -1.421875 
Q 29.59375 -1.421875 25.265625 0.953125 
Q 20.953125 3.328125 18.109375 8.203125 
z
M 48.6875 27.296875 
Q 48.6875 37.203125 44.609375 42.84375 
Q 40.53125 48.484375 33.40625 48.484375 
Q 26.265625 48.484375 22.1875 42.84375 
Q 18.109375 37.203125 18.109375 27.296875 
Q 18.109375 17.390625 22.1875 11.75 
Q 26.265625 6.109375 33.40625 6.109375 
Q 40.53125 6.109375 44.609375 11.75 
Q 48.6875 17.390625 48.6875 27.296875 
z
" id="DejaVuSans-70"/>
      <path d="M 9.421875 54.6875 
L 18.40625 54.6875 
L 18.40625 0 
L 9.421875 0 
z
M 9.421875 75.984375 
L 18.40625 75.984375 
L 18.40625 64.59375 
L 9.421875 64.59375 
z
" id="DejaVuSans-69"/>
      <path d="M 44.28125 53.078125 
L 44.28125 44.578125 
Q 40.484375 46.53125 36.375 47.5 
Q 32.28125 48.484375 27.875 48.484375 
Q 21.1875 48.484375 17.84375 46.4375 
Q 14.5 44.390625 14.5 40.28125 
Q 14.5 37.15625 16.890625 35.375 
Q 19.28125 33.59375 26.515625 31.984375 
L 29.59375 31.296875 
Q 39.15625 29.25 43.1875 25.515625 
Q 47.21875 21.78125 47.21875 15.09375 
Q 47.21875 7.46875 41.1875 3.015625 
Q 35.15625 -1.421875 24.609375 -1.421875 
Q 20.21875 -1.421875 15.453125 -0.5625 
Q 10.6875 0.296875 5.421875 2 
L 5.421875 11.28125 
Q 10.40625 8.6875 15.234375 7.390625 
Q 20.0625 6.109375 24.8125 6.109375 
Q 31.15625 6.109375 34.5625 8.28125 
Q 37.984375 10.453125 37.984375 14.40625 
Q 37.984375 18.0625 35.515625 20.015625 
Q 33.0625 21.96875 24.703125 23.78125 
L 21.578125 24.515625 
Q 13.234375 26.265625 9.515625 29.90625 
Q 5.8125 33.546875 5.8125 39.890625 
Q 5.8125 47.609375 11.28125 51.796875 
Q 16.75 56 26.8125 56 
Q 31.78125 56 36.171875 55.265625 
Q 40.578125 54.546875 44.28125 53.078125 
z
" id="DejaVuSans-73"/>
      <path d="M 30.609375 48.390625 
Q 23.390625 48.390625 19.1875 42.75 
Q 14.984375 37.109375 14.984375 27.296875 
Q 14.984375 17.484375 19.15625 11.84375 
Q 23.34375 6.203125 30.609375 6.203125 
Q 37.796875 6.203125 41.984375 11.859375 
Q 46.1875 17.53125 46.1875 27.296875 
Q 46.1875 37.015625 41.984375 42.703125 
Q 37.796875 48.390625 30.609375 48.390625 
z
M 30.609375 56 
Q 42.328125 56 49.015625 48.375 
Q 55.71875 40.765625 55.71875 27.296875 
Q 55.71875 13.875 49.015625 6.21875 
Q 42.328125 -1.421875 30.609375 -1.421875 
Q 18.84375 -1.421875 12.171875 6.21875 
Q 5.515625 13.875 5.515625 27.296875 
Q 5.515625 40.765625 12.171875 48.375 
Q 18.84375 56 30.609375 56 
z
" id="DejaVuSans-6f"/>
      <path d="M 45.40625 46.390625 
L 45.40625 75.984375 
L 54.390625 75.984375 
L 54.390625 0 
L 45.40625 0 
L 45.40625 8.203125 
Q 42.578125 3.328125 38.25 0.953125 
Q 33.9375 -1.421875 27.875 -1.421875 
Q 17.96875 -1.421875 11.734375 6.484375 
Q 5.515625 14.40625 5.515625 27.296875 
Q 5.515625 40.1875 11.734375 48.09375 
Q 17.96875 56 27.875 56 
Q 33.9375 56 38.25 53.625 
Q 42.578125 51.265625 45.40625 46.390625 
z
M 14.796875 27.296875 
Q 14.796875 17.390625 18.875 11.75 
Q 22.953125 6.109375 30.078125 6.109375 
Q 37.203125 6.109375 41.296875 11.75 
Q 45.40625 17.390625 45.40625 27.296875 
Q 45.40625 37.203125 41.296875 42.84375 
Q 37.203125 48.484375 30.078125 48.484375 
Q 22.953125 48.484375 18.875 42.84375 
Q 14.796875 37.203125 14.796875 27.296875 
z
" id="DejaVuSans-64"/>
      <path d="M 48.78125 52.59375 
L 48.78125 44.1875 
Q 44.96875 46.296875 41.140625 47.34375 
Q 37.3125 48.390625 33.40625 48.390625 
Q 24.65625 48.390625 19.8125 42.84375 
Q 14.984375 37.3125 14.984375 27.296875 
Q 14.984375 17.28125 19.8125 11.734375 
Q 24.65625 6.203125 33.40625 6.203125 
Q 37.3125 6.203125 41.140625 7.25 
Q 44.96875 8.296875 48.78125 10.40625 
L 48.78125 2.09375 
Q 45.015625 0.34375 40.984375 -0.53125 
Q 36.96875 -1.421875 32.421875 -1.421875 
Q 20.0625 -1.421875 12.78125 6.34375 
Q 5.515625 14.109375 5.515625 27.296875 
Q 5.515625 40.671875 12.859375 48.328125 
Q 20.21875 56 33.015625 56 
Q 37.15625 56 41.109375 55.140625 
Q 45.0625 54.296875 48.78125 52.59375 
z
" id="DejaVuSans-63"/>
      <path id="DejaVuSans-20"/>
      <path d="M 44.390625 34.1875 
Q 47.5625 33.109375 50.5625 29.59375 
Q 53.5625 26.078125 56.59375 19.921875 
L 66.609375 0 
L 56 0 
L 46.6875 18.703125 
Q 43.0625 26.03125 39.671875 28.421875 
Q 36.28125 30.8125 30.421875 30.8125 
L 19.671875 30.8125 
L 19.671875 0 
L 9.8125 0 
L 9.8125 72.90625 
L 32.078125 72.90625 
Q 44.578125 72.90625 50.734375 67.671875 
Q 56.890625 62.453125 56.890625 51.90625 
Q 56.890625 45.015625 53.6875 40.46875 
Q 50.484375 35.9375 44.390625 34.1875 
z
M 19.671875 64.796875 
L 19.671875 38.921875 
L 32.078125 38.921875 
Q 39.203125 38.921875 42.84375 42.21875 
Q 46.484375 45.515625 46.484375 51.90625 
Q 46.484375 58.296875 42.84375 61.546875 
Q 39.203125 64.796875 32.078125 64.796875 
z
" id="DejaVuSans-52"/>
      <path d="M 56.203125 29.59375 
L 56.203125 25.203125 
L 14.890625 25.203125 
Q 15.484375 15.921875 20.484375 11.0625 
Q 25.484375 6.203125 34.421875 6.203125 
Q 39.59375 6.203125 44.453125 7.46875 
Q 49.3125 8.734375 54.109375 11.28125 
L 54.109375 2.78125 
Q 49.265625 0.734375 44.1875 -0.34375 
Q 39.109375 -1.421875 33.890625 -1.421875 
Q 20.796875 -1.421875 13.15625 6.1875 
Q 5.515625 13.8125 5.515625 26.8125 
Q 5.515625 40.234375 12.765625 48.109375 
Q 20.015625 56 32.328125 56 
Q 43.359375 56 49.78125 48.890625 
Q 56.203125 41.796875 56.203125 29.59375 
z
M 47.21875 32.234375 
Q 47.125 39.59375 43.09375 43.984375 
Q 39.0625 48.390625 32.421875 48.390625 
Q 24.90625 48.390625 20.390625 44.140625 
Q 15.875 39.890625 15.1875 32.171875 
z
" id="DejaVuSans-65"/>
      <path d="M 4.203125 54.6875 
L 13.1875 54.6875 
L 24.421875 12.015625 
L 35.59375 54.6875 
L 46.1875 54.6875 
L 57.421875 12.015625 
L 68.609375 54.6875 
L 77.59375 54.6875 
L 63.28125 0 
L 52.6875 0 
L 40.921875 44.828125 
L 29.109375 0 
L 18.5 0 
z
" id="DejaVuSans-77"/>
      <path d="M 34.28125 27.484375 
Q 23.390625 27.484375 19.1875 25 
Q 14.984375 22.515625 14.984375 16.5 
Q 14.984375 11.71875 18.140625 8.90625 
Q 21.296875 6.109375 26.703125 6.109375 
Q 34.1875 6.109375 38.703125 11.40625 
Q 43.21875 16.703125 43.21875 25.484375 
L 43.21875 27.484375 
z
M 52.203125 31.203125 
L 52.203125 0 
L 43.21875 0 
L 43.21875 8.296875 
Q 40.140625 3.328125 35.546875 0.953125 
Q 30.953125 -1.421875 24.3125 -1.421875 
Q 15.921875 -1.421875 10.953125 3.296875 
Q 6 8.015625 6 15.921875 
Q 6 25.140625 12.171875 29.828125 
Q 18.359375 34.515625 30.609375 34.515625 
L 43.21875 34.515625 
L 43.21875 35.40625 
Q 43.21875 41.609375 39.140625 45 
Q 35.0625 48.390625 27.6875 48.390625 
Q 23 48.390625 18.546875 47.265625 
Q 14.109375 46.140625 10.015625 43.890625 
L 10.015625 52.203125 
Q 14.9375 54.109375 19.578125 55.046875 
Q 24.21875 56 28.609375 56 
Q 40.484375 56 46.34375 49.84375 
Q 52.203125 43.703125 52.203125 31.203125 
z
" id="DejaVuSans-61"/>
      <path d="M 41.109375 46.296875 
Q 39.59375 47.171875 37.8125 47.578125 
Q 36.03125 48 33.890625 48 
Q 26.265625 48 22.1875 43.046875 
Q 18.109375 38.09375 18.109375 28.8125 
L 18.109375 0 
L 9.078125 0 
L 9.078125 54.6875 
L 18.109375 54.6875 
L 18.109375 46.1875 
Q 20.953125 51.171875 25.484375 53.578125 
Q 30.03125 56 36.53125 56 
Q 37.453125 56 38.578125 55.875 
Q 39.703125 55.765625 41.0625 55.515625 
z
" id="DejaVuSans-72"/>
     </defs>
     <g transform="translate(245.375781 316.759187)scale(0.1 -0.1)">
      <use xlink:href="#DejaVuSans-45"/>
      <use x="63.183594" xlink:href="#DejaVuSans-70"/>
      <use x="126.660156" xlink:href="#DejaVuSans-69"/>
      <use x="154.443359" xlink:href="#DejaVuSans-73"/>
      <use x="206.542969" xlink:href="#DejaVuSans-6f"/>
      <use x="267.724609" xlink:href="#DejaVuSans-64"/>
      <use x="331.201172" xlink:href="#DejaVuSans-69"/>
      <use x="358.984375" xlink:href="#DejaVuSans-63"/>
      <use x="413.964844" xlink:href="#DejaVuSans-20"/>
      <use x="445.751953" xlink:href="#DejaVuSans-52"/>
      <use x="515.171875" xlink:href="#DejaVuSans-65"/>
      <use x="576.695312" xlink:href="#DejaVuSans-77"/>
      <use x="658.482422" xlink:href="#DejaVuSans-61"/>
      <use x="719.761719" xlink:href="#DejaVuSans-72"/>
      <use x="760.859375" xlink:href="#DejaVuSans-64"/>
     </g>
    </g>
   </g>
   <g id="matplotlib.axis_2">
    <g id="ytick_1">
     <g id="line2d_23">
      <path clip-path="url(#pa4c2416cb0)" d="M 108.03375 288.482625 
L 465.15375 288.482625 
" style="fill:none;stroke:#b0b0b0;stroke-linecap:square;stroke-width:0.8;"/>
     </g>
     <g id="line2d_24">
      <defs>
       <path d="M 0 0 
L -3.5 0 
" id="m7957192433" style="stroke:#000000;stroke-width:0.8;"/>
      </defs>
      <g>
       <use style="stroke:#000000;stroke-width:0.8;" x="108.03375" xlink:href="#m7957192433" y="288.482625"/>
      </g>
     </g>
     <g id="text_13">
      <!-- 0 -->
      <g transform="translate(94.67125 292.281844)scale(0.1 -0.1)">
       <use xlink:href="#DejaVuSans-30"/>
      </g>
     </g>
    </g>
    <g id="ytick_2">
     <g id="line2d_25">
      <path clip-path="url(#pa4c2416cb0)" d="M 108.03375 229.897327 
L 465.15375 229.897327 
" style="fill:none;stroke:#b0b0b0;stroke-linecap:square;stroke-width:0.8;"/>
     </g>
     <g id="line2d_26">
      <g>
       <use style="stroke:#000000;stroke-width:0.8;" x="108.03375" xlink:href="#m7957192433" y="229.897327"/>
      </g>
     </g>
     <g id="text_14">
      <!-- 500 -->
      <g transform="translate(81.94625 233.696546)scale(0.1 -0.1)">
       <use xlink:href="#DejaVuSans-35"/>
       <use x="63.623047" xlink:href="#DejaVuSans-30"/>
       <use x="127.246094" xlink:href="#DejaVuSans-30"/>
      </g>
     </g>
    </g>
    <g id="ytick_3">
     <g id="line2d_27">
      <path clip-path="url(#pa4c2416cb0)" d="M 108.03375 171.312029 
L 465.15375 171.312029 
" style="fill:none;stroke:#b0b0b0;stroke-linecap:square;stroke-width:0.8;"/>
     </g>
     <g id="line2d_28">
      <g>
       <use style="stroke:#000000;stroke-width:0.8;" x="108.03375" xlink:href="#m7957192433" y="171.312029"/>
      </g>
     </g>
     <g id="text_15">
      <!-- 1000 -->
      <g transform="translate(75.58375 175.111247)scale(0.1 -0.1)">
       <use xlink:href="#DejaVuSans-31"/>
       <use x="63.623047" xlink:href="#DejaVuSans-30"/>
       <use x="127.246094" xlink:href="#DejaVuSans-30"/>
       <use x="190.869141" xlink:href="#DejaVuSans-30"/>
      </g>
     </g>
    </g>
    <g id="ytick_4">
     <g id="line2d_29">
      <path clip-path="url(#pa4c2416cb0)" d="M 108.03375 112.72673 
L 465.15375 112.72673 
" style="fill:none;stroke:#b0b0b0;stroke-linecap:square;stroke-width:0.8;"/>
     </g>
     <g id="line2d_30">
      <g>
       <use style="stroke:#000000;stroke-width:0.8;" x="108.03375" xlink:href="#m7957192433" y="112.72673"/>
      </g>
     </g>
     <g id="text_16">
      <!-- 1500 -->
      <g transform="translate(75.58375 116.525949)scale(0.1 -0.1)">
       <use xlink:href="#DejaVuSans-31"/>
       <use x="63.623047" xlink:href="#DejaVuSans-35"/>
       <use x="127.246094" xlink:href="#DejaVuSans-30"/>
       <use x="190.869141" xlink:href="#DejaVuSans-30"/>
      </g>
     </g>
    </g>
    <g id="ytick_5">
     <g id="line2d_31">
      <path clip-path="url(#pa4c2416cb0)" d="M 108.03375 54.141432 
L 465.15375 54.141432 
" style="fill:none;stroke:#b0b0b0;stroke-linecap:square;stroke-width:0.8;"/>
     </g>
     <g id="line2d_32">
      <g>
       <use style="stroke:#000000;stroke-width:0.8;" x="108.03375" xlink:href="#m7957192433" y="54.141432"/>
      </g>
     </g>
     <g id="text_17">
      <!-- 2000 -->
      <g transform="translate(75.58375 57.940651)scale(0.1 -0.1)">
       <use xlink:href="#DejaVuSans-32"/>
       <use x="63.623047" xlink:href="#DejaVuSans-30"/>
       <use x="127.246094" xlink:href="#DejaVuSans-30"/>
       <use x="190.869141" xlink:href="#DejaVuSans-30"/>
      </g>
     </g>
    </g>
   </g>
   <g id="patch_103">
    <path d="M 108.03375 288.482625 
L 108.03375 22.370625 
" style="fill:none;stroke:#000000;stroke-linecap:square;stroke-linejoin:miter;stroke-width:0.8;"/>
   </g>
   <g id="patch_104">
    <path d="M 465.15375 288.482625 
L 465.15375 22.370625 
" style="fill:none;stroke:#000000;stroke-linecap:square;stroke-linejoin:miter;stroke-width:0.8;"/>
   </g>
   <g id="patch_105">
    <path d="M 108.03375 288.482625 
L 465.15375 288.482625 
" style="fill:none;stroke:#000000;stroke-linecap:square;stroke-linejoin:miter;stroke-width:0.8;"/>
   </g>
   <g id="patch_106">
    <path d="M 108.03375 22.370625 
L 465.15375 22.370625 
" style="fill:none;stroke:#000000;stroke-linecap:square;stroke-linejoin:miter;stroke-width:0.8;"/>
   </g>
   <g id="text_18">
    <!-- Vanilla Jerk | Sonic The Hedgehog - Green Hill Zone - Act 1 | Exploit Bias: Rewards Histogram -->
    <defs>
     <path d="M 28.609375 0 
L 0.78125 72.90625 
L 11.078125 72.90625 
L 34.1875 11.53125 
L 57.328125 72.90625 
L 67.578125 72.90625 
L 39.796875 0 
z
" id="DejaVuSans-56"/>
     <path d="M 54.890625 33.015625 
L 54.890625 0 
L 45.90625 0 
L 45.90625 32.71875 
Q 45.90625 40.484375 42.875 44.328125 
Q 39.84375 48.1875 33.796875 48.1875 
Q 26.515625 48.1875 22.3125 43.546875 
Q 18.109375 38.921875 18.109375 30.90625 
L 18.109375 0 
L 9.078125 0 
L 9.078125 54.6875 
L 18.109375 54.6875 
L 18.109375 46.1875 
Q 21.34375 51.125 25.703125 53.5625 
Q 30.078125 56 35.796875 56 
Q 45.21875 56 50.046875 50.171875 
Q 54.890625 44.34375 54.890625 33.015625 
z
" id="DejaVuSans-6e"/>
     <path d="M 9.421875 75.984375 
L 18.40625 75.984375 
L 18.40625 0 
L 9.421875 0 
z
" id="DejaVuSans-6c"/>
     <path d="M 9.8125 72.90625 
L 19.671875 72.90625 
L 19.671875 5.078125 
Q 19.671875 -8.109375 14.671875 -14.0625 
Q 9.671875 -20.015625 -1.421875 -20.015625 
L -5.171875 -20.015625 
L -5.171875 -11.71875 
L -2.09375 -11.71875 
Q 4.4375 -11.71875 7.125 -8.046875 
Q 9.8125 -4.390625 9.8125 5.078125 
z
" id="DejaVuSans-4a"/>
     <path d="M 9.078125 75.984375 
L 18.109375 75.984375 
L 18.109375 31.109375 
L 44.921875 54.6875 
L 56.390625 54.6875 
L 27.390625 29.109375 
L 57.625 0 
L 45.90625 0 
L 18.109375 26.703125 
L 18.109375 0 
L 9.078125 0 
z
" id="DejaVuSans-6b"/>
     <path d="M 21 76.421875 
L 21 -23.578125 
L 12.703125 -23.578125 
L 12.703125 76.421875 
z
" id="DejaVuSans-7c"/>
     <path d="M 53.515625 70.515625 
L 53.515625 60.890625 
Q 47.90625 63.578125 42.921875 64.890625 
Q 37.9375 66.21875 33.296875 66.21875 
Q 25.25 66.21875 20.875 63.09375 
Q 16.5 59.96875 16.5 54.203125 
Q 16.5 49.359375 19.40625 46.890625 
Q 22.3125 44.4375 30.421875 42.921875 
L 36.375 41.703125 
Q 47.40625 39.59375 52.65625 34.296875 
Q 57.90625 29 57.90625 20.125 
Q 57.90625 9.515625 50.796875 4.046875 
Q 43.703125 -1.421875 29.984375 -1.421875 
Q 24.8125 -1.421875 18.96875 -0.25 
Q 13.140625 0.921875 6.890625 3.21875 
L 6.890625 13.375 
Q 12.890625 10.015625 18.65625 8.296875 
Q 24.421875 6.59375 29.984375 6.59375 
Q 38.421875 6.59375 43.015625 9.90625 
Q 47.609375 13.234375 47.609375 19.390625 
Q 47.609375 24.75 44.3125 27.78125 
Q 41.015625 30.8125 33.5 32.328125 
L 27.484375 33.5 
Q 16.453125 35.6875 11.515625 40.375 
Q 6.59375 45.0625 6.59375 53.421875 
Q 6.59375 63.09375 13.40625 68.65625 
Q 20.21875 74.21875 32.171875 74.21875 
Q 37.3125 74.21875 42.625 73.28125 
Q 47.953125 72.359375 53.515625 70.515625 
z
" id="DejaVuSans-53"/>
     <path d="M -0.296875 72.90625 
L 61.375 72.90625 
L 61.375 64.59375 
L 35.5 64.59375 
L 35.5 0 
L 25.59375 0 
L 25.59375 64.59375 
L -0.296875 64.59375 
z
" id="DejaVuSans-54"/>
     <path d="M 54.890625 33.015625 
L 54.890625 0 
L 45.90625 0 
L 45.90625 32.71875 
Q 45.90625 40.484375 42.875 44.328125 
Q 39.84375 48.1875 33.796875 48.1875 
Q 26.515625 48.1875 22.3125 43.546875 
Q 18.109375 38.921875 18.109375 30.90625 
L 18.109375 0 
L 9.078125 0 
L 9.078125 75.984375 
L 18.109375 75.984375 
L 18.109375 46.1875 
Q 21.34375 51.125 25.703125 53.5625 
Q 30.078125 56 35.796875 56 
Q 45.21875 56 50.046875 50.171875 
Q 54.890625 44.34375 54.890625 33.015625 
z
" id="DejaVuSans-68"/>
     <path d="M 9.8125 72.90625 
L 19.671875 72.90625 
L 19.671875 43.015625 
L 55.515625 43.015625 
L 55.515625 72.90625 
L 65.375 72.90625 
L 65.375 0 
L 55.515625 0 
L 55.515625 34.71875 
L 19.671875 34.71875 
L 19.671875 0 
L 9.8125 0 
z
" id="DejaVuSans-48"/>
     <path d="M 45.40625 27.984375 
Q 45.40625 37.75 41.375 43.109375 
Q 37.359375 48.484375 30.078125 48.484375 
Q 22.859375 48.484375 18.828125 43.109375 
Q 14.796875 37.75 14.796875 27.984375 
Q 14.796875 18.265625 18.828125 12.890625 
Q 22.859375 7.515625 30.078125 7.515625 
Q 37.359375 7.515625 41.375 12.890625 
Q 45.40625 18.265625 45.40625 27.984375 
z
M 54.390625 6.78125 
Q 54.390625 -7.171875 48.1875 -13.984375 
Q 42 -20.796875 29.203125 -20.796875 
Q 24.46875 -20.796875 20.265625 -20.09375 
Q 16.0625 -19.390625 12.109375 -17.921875 
L 12.109375 -9.1875 
Q 16.0625 -11.328125 19.921875 -12.34375 
Q 23.78125 -13.375 27.78125 -13.375 
Q 36.625 -13.375 41.015625 -8.765625 
Q 45.40625 -4.15625 45.40625 5.171875 
L 45.40625 9.625 
Q 42.625 4.78125 38.28125 2.390625 
Q 33.9375 0 27.875 0 
Q 17.828125 0 11.671875 7.65625 
Q 5.515625 15.328125 5.515625 27.984375 
Q 5.515625 40.671875 11.671875 48.328125 
Q 17.828125 56 27.875 56 
Q 33.9375 56 38.28125 53.609375 
Q 42.625 51.21875 45.40625 46.390625 
L 45.40625 54.6875 
L 54.390625 54.6875 
z
" id="DejaVuSans-67"/>
     <path d="M 4.890625 31.390625 
L 31.203125 31.390625 
L 31.203125 23.390625 
L 4.890625 23.390625 
z
" id="DejaVuSans-2d"/>
     <path d="M 59.515625 10.40625 
L 59.515625 29.984375 
L 43.40625 29.984375 
L 43.40625 38.09375 
L 69.28125 38.09375 
L 69.28125 6.78125 
Q 63.578125 2.734375 56.6875 0.65625 
Q 49.8125 -1.421875 42 -1.421875 
Q 24.90625 -1.421875 15.25 8.5625 
Q 5.609375 18.5625 5.609375 36.375 
Q 5.609375 54.25 15.25 64.234375 
Q 24.90625 74.21875 42 74.21875 
Q 49.125 74.21875 55.546875 72.453125 
Q 61.96875 70.703125 67.390625 67.28125 
L 67.390625 56.78125 
Q 61.921875 61.421875 55.765625 63.765625 
Q 49.609375 66.109375 42.828125 66.109375 
Q 29.4375 66.109375 22.71875 58.640625 
Q 16.015625 51.171875 16.015625 36.375 
Q 16.015625 21.625 22.71875 14.15625 
Q 29.4375 6.6875 42.828125 6.6875 
Q 48.046875 6.6875 52.140625 7.59375 
Q 56.25 8.5 59.515625 10.40625 
z
" id="DejaVuSans-47"/>
     <path d="M 5.609375 72.90625 
L 62.890625 72.90625 
L 62.890625 65.375 
L 16.796875 8.296875 
L 64.015625 8.296875 
L 64.015625 0 
L 4.5 0 
L 4.5 7.515625 
L 50.59375 64.59375 
L 5.609375 64.59375 
z
" id="DejaVuSans-5a"/>
     <path d="M 34.1875 63.1875 
L 20.796875 26.90625 
L 47.609375 26.90625 
z
M 28.609375 72.90625 
L 39.796875 72.90625 
L 67.578125 0 
L 57.328125 0 
L 50.6875 18.703125 
L 17.828125 18.703125 
L 11.1875 0 
L 0.78125 0 
z
" id="DejaVuSans-41"/>
     <path d="M 18.3125 70.21875 
L 18.3125 54.6875 
L 36.8125 54.6875 
L 36.8125 47.703125 
L 18.3125 47.703125 
L 18.3125 18.015625 
Q 18.3125 11.328125 20.140625 9.421875 
Q 21.96875 7.515625 27.59375 7.515625 
L 36.8125 7.515625 
L 36.8125 0 
L 27.59375 0 
Q 17.1875 0 13.234375 3.875 
Q 9.28125 7.765625 9.28125 18.015625 
L 9.28125 47.703125 
L 2.6875 47.703125 
L 2.6875 54.6875 
L 9.28125 54.6875 
L 9.28125 70.21875 
z
" id="DejaVuSans-74"/>
     <path d="M 54.890625 54.6875 
L 35.109375 28.078125 
L 55.90625 0 
L 45.3125 0 
L 29.390625 21.484375 
L 13.484375 0 
L 2.875 0 
L 24.125 28.609375 
L 4.6875 54.6875 
L 15.28125 54.6875 
L 29.78125 35.203125 
L 44.28125 54.6875 
z
" id="DejaVuSans-78"/>
     <path d="M 19.671875 34.8125 
L 19.671875 8.109375 
L 35.5 8.109375 
Q 43.453125 8.109375 47.28125 11.40625 
Q 51.125 14.703125 51.125 21.484375 
Q 51.125 28.328125 47.28125 31.5625 
Q 43.453125 34.8125 35.5 34.8125 
z
M 19.671875 64.796875 
L 19.671875 42.828125 
L 34.28125 42.828125 
Q 41.5 42.828125 45.03125 45.53125 
Q 48.578125 48.25 48.578125 53.8125 
Q 48.578125 59.328125 45.03125 62.0625 
Q 41.5 64.796875 34.28125 64.796875 
z
M 9.8125 72.90625 
L 35.015625 72.90625 
Q 46.296875 72.90625 52.390625 68.21875 
Q 58.5 63.53125 58.5 54.890625 
Q 58.5 48.1875 55.375 44.234375 
Q 52.25 40.28125 46.1875 39.3125 
Q 53.46875 37.75 57.5 32.78125 
Q 61.53125 27.828125 61.53125 20.40625 
Q 61.53125 10.640625 54.890625 5.3125 
Q 48.25 0 35.984375 0 
L 9.8125 0 
z
" id="DejaVuSans-42"/>
     <path d="M 11.71875 12.40625 
L 22.015625 12.40625 
L 22.015625 0 
L 11.71875 0 
z
M 11.71875 51.703125 
L 22.015625 51.703125 
L 22.015625 39.3125 
L 11.71875 39.3125 
z
" id="DejaVuSans-3a"/>
     <path d="M 52 44.1875 
Q 55.375 50.25 60.0625 53.125 
Q 64.75 56 71.09375 56 
Q 79.640625 56 84.28125 50.015625 
Q 88.921875 44.046875 88.921875 33.015625 
L 88.921875 0 
L 79.890625 0 
L 79.890625 32.71875 
Q 79.890625 40.578125 77.09375 44.375 
Q 74.3125 48.1875 68.609375 48.1875 
Q 61.625 48.1875 57.5625 43.546875 
Q 53.515625 38.921875 53.515625 30.90625 
L 53.515625 0 
L 44.484375 0 
L 44.484375 32.71875 
Q 44.484375 40.625 41.703125 44.40625 
Q 38.921875 48.1875 33.109375 48.1875 
Q 26.21875 48.1875 22.15625 43.53125 
Q 18.109375 38.875 18.109375 30.90625 
L 18.109375 0 
L 9.078125 0 
L 9.078125 54.6875 
L 18.109375 54.6875 
L 18.109375 46.1875 
Q 21.1875 51.21875 25.484375 53.609375 
Q 29.78125 56 35.6875 56 
Q 41.65625 56 45.828125 52.96875 
Q 50 49.953125 52 44.1875 
z
" id="DejaVuSans-6d"/>
    </defs>
    <g transform="translate(7.2 16.370625)scale(0.12 -0.12)">
     <use xlink:href="#DejaVuSans-56"/>
     <use x="68.298828" xlink:href="#DejaVuSans-61"/>
     <use x="129.578125" xlink:href="#DejaVuSans-6e"/>
     <use x="192.957031" xlink:href="#DejaVuSans-69"/>
     <use x="220.740234" xlink:href="#DejaVuSans-6c"/>
     <use x="248.523438" xlink:href="#DejaVuSans-6c"/>
     <use x="276.306641" xlink:href="#DejaVuSans-61"/>
     <use x="337.585938" xlink:href="#DejaVuSans-20"/>
     <use x="369.373047" xlink:href="#DejaVuSans-4a"/>
     <use x="398.865234" xlink:href="#DejaVuSans-65"/>
     <use x="460.388672" xlink:href="#DejaVuSans-72"/>
     <use x="501.501953" xlink:href="#DejaVuSans-6b"/>
     <use x="559.412109" xlink:href="#DejaVuSans-20"/>
     <use x="591.199219" xlink:href="#DejaVuSans-7c"/>
     <use x="624.890625" xlink:href="#DejaVuSans-20"/>
     <use x="656.677734" xlink:href="#DejaVuSans-53"/>
     <use x="720.154297" xlink:href="#DejaVuSans-6f"/>
     <use x="781.335938" xlink:href="#DejaVuSans-6e"/>
     <use x="844.714844" xlink:href="#DejaVuSans-69"/>
     <use x="872.498047" xlink:href="#DejaVuSans-63"/>
     <use x="927.478516" xlink:href="#DejaVuSans-20"/>
     <use x="959.265625" xlink:href="#DejaVuSans-54"/>
     <use x="1020.349609" xlink:href="#DejaVuSans-68"/>
     <use x="1083.728516" xlink:href="#DejaVuSans-65"/>
     <use x="1145.251953" xlink:href="#DejaVuSans-20"/>
     <use x="1177.039062" xlink:href="#DejaVuSans-48"/>
     <use x="1252.234375" xlink:href="#DejaVuSans-65"/>
     <use x="1313.757812" xlink:href="#DejaVuSans-64"/>
     <use x="1377.234375" xlink:href="#DejaVuSans-67"/>
     <use x="1440.710938" xlink:href="#DejaVuSans-65"/>
     <use x="1502.234375" xlink:href="#DejaVuSans-68"/>
     <use x="1565.613281" xlink:href="#DejaVuSans-6f"/>
     <use x="1626.794922" xlink:href="#DejaVuSans-67"/>
     <use x="1690.271484" xlink:href="#DejaVuSans-20"/>
     <use x="1722.058594" xlink:href="#DejaVuSans-2d"/>
     <use x="1758.142578" xlink:href="#DejaVuSans-20"/>
     <use x="1789.929688" xlink:href="#DejaVuSans-47"/>
     <use x="1867.419922" xlink:href="#DejaVuSans-72"/>
     <use x="1908.501953" xlink:href="#DejaVuSans-65"/>
     <use x="1970.025391" xlink:href="#DejaVuSans-65"/>
     <use x="2031.548828" xlink:href="#DejaVuSans-6e"/>
     <use x="2094.927734" xlink:href="#DejaVuSans-20"/>
     <use x="2126.714844" xlink:href="#DejaVuSans-48"/>
     <use x="2201.910156" xlink:href="#DejaVuSans-69"/>
     <use x="2229.693359" xlink:href="#DejaVuSans-6c"/>
     <use x="2257.476562" xlink:href="#DejaVuSans-6c"/>
     <use x="2285.259766" xlink:href="#DejaVuSans-20"/>
     <use x="2317.046875" xlink:href="#DejaVuSans-5a"/>
     <use x="2385.552734" xlink:href="#DejaVuSans-6f"/>
     <use x="2446.734375" xlink:href="#DejaVuSans-6e"/>
     <use x="2510.113281" xlink:href="#DejaVuSans-65"/>
     <use x="2571.636719" xlink:href="#DejaVuSans-20"/>
     <use x="2603.423828" xlink:href="#DejaVuSans-2d"/>
     <use x="2639.507812" xlink:href="#DejaVuSans-20"/>
     <use x="2671.294922" xlink:href="#DejaVuSans-41"/>
     <use x="2739.6875" xlink:href="#DejaVuSans-63"/>
     <use x="2794.667969" xlink:href="#DejaVuSans-74"/>
     <use x="2833.876953" xlink:href="#DejaVuSans-20"/>
     <use x="2865.664062" xlink:href="#DejaVuSans-31"/>
     <use x="2929.287109" xlink:href="#DejaVuSans-20"/>
     <use x="2961.074219" xlink:href="#DejaVuSans-7c"/>
     <use x="2994.765625" xlink:href="#DejaVuSans-20"/>
     <use x="3026.552734" xlink:href="#DejaVuSans-45"/>
     <use x="3089.736328" xlink:href="#DejaVuSans-78"/>
     <use x="3148.916016" xlink:href="#DejaVuSans-70"/>
     <use x="3212.392578" xlink:href="#DejaVuSans-6c"/>
     <use x="3240.175781" xlink:href="#DejaVuSans-6f"/>
     <use x="3301.357422" xlink:href="#DejaVuSans-69"/>
     <use x="3329.140625" xlink:href="#DejaVuSans-74"/>
     <use x="3368.349609" xlink:href="#DejaVuSans-20"/>
     <use x="3400.136719" xlink:href="#DejaVuSans-42"/>
     <use x="3468.740234" xlink:href="#DejaVuSans-69"/>
     <use x="3496.523438" xlink:href="#DejaVuSans-61"/>
     <use x="3557.802734" xlink:href="#DejaVuSans-73"/>
     <use x="3609.902344" xlink:href="#DejaVuSans-3a"/>
     <use x="3643.59375" xlink:href="#DejaVuSans-20"/>
     <use x="3675.380859" xlink:href="#DejaVuSans-52"/>
     <use x="3744.800781" xlink:href="#DejaVuSans-65"/>
     <use x="3806.324219" xlink:href="#DejaVuSans-77"/>
     <use x="3888.111328" xlink:href="#DejaVuSans-61"/>
     <use x="3949.390625" xlink:href="#DejaVuSans-72"/>
     <use x="3990.488281" xlink:href="#DejaVuSans-64"/>
     <use x="4053.964844" xlink:href="#DejaVuSans-73"/>
     <use x="4106.064453" xlink:href="#DejaVuSans-20"/>
     <use x="4137.851562" xlink:href="#DejaVuSans-48"/>
     <use x="4213.046875" xlink:href="#DejaVuSans-69"/>
     <use x="4240.830078" xlink:href="#DejaVuSans-73"/>
     <use x="4292.929688" xlink:href="#DejaVuSans-74"/>
     <use x="4332.138672" xlink:href="#DejaVuSans-6f"/>
     <use x="4393.320312" xlink:href="#DejaVuSans-67"/>
     <use x="4456.796875" xlink:href="#DejaVuSans-72"/>
     <use x="4497.910156" xlink:href="#DejaVuSans-61"/>
     <use x="4559.189453" xlink:href="#DejaVuSans-6d"/>
    </g>
   </g>
   <g id="legend_1">
    <g id="patch_107">
     <path d="M 511.9069 177.151875 
L 590.28815 177.151875 
Q 592.28815 177.151875 592.28815 175.151875 
L 592.28815 29.370625 
Q 592.28815 27.370625 590.28815 27.370625 
L 511.9069 27.370625 
Q 509.9069 27.370625 509.9069 29.370625 
L 509.9069 175.151875 
Q 509.9069 177.151875 511.9069 177.151875 
z
" style="fill:#ffffff;opacity:0.8;stroke:#cccccc;stroke-linejoin:miter;"/>
    </g>
    <g id="patch_108">
     <path d="M 513.9069 38.969062 
L 533.9069 38.969062 
L 533.9069 31.969062 
L 513.9069 31.969062 
z
" style="fill:#8000ff;opacity:0.5;"/>
    </g>
    <g id="text_19">
     <!-- 00% Bias -->
     <defs>
      <path d="M 72.703125 32.078125 
Q 68.453125 32.078125 66.03125 28.46875 
Q 63.625 24.859375 63.625 18.40625 
Q 63.625 12.0625 66.03125 8.421875 
Q 68.453125 4.78125 72.703125 4.78125 
Q 76.859375 4.78125 79.265625 8.421875 
Q 81.6875 12.0625 81.6875 18.40625 
Q 81.6875 24.8125 79.265625 28.4375 
Q 76.859375 32.078125 72.703125 32.078125 
z
M 72.703125 38.28125 
Q 80.421875 38.28125 84.953125 32.90625 
Q 89.5 27.546875 89.5 18.40625 
Q 89.5 9.28125 84.9375 3.921875 
Q 80.375 -1.421875 72.703125 -1.421875 
Q 64.890625 -1.421875 60.34375 3.921875 
Q 55.8125 9.28125 55.8125 18.40625 
Q 55.8125 27.59375 60.375 32.9375 
Q 64.9375 38.28125 72.703125 38.28125 
z
M 22.3125 68.015625 
Q 18.109375 68.015625 15.6875 64.375 
Q 13.28125 60.75 13.28125 54.390625 
Q 13.28125 47.953125 15.671875 44.328125 
Q 18.0625 40.71875 22.3125 40.71875 
Q 26.5625 40.71875 28.96875 44.328125 
Q 31.390625 47.953125 31.390625 54.390625 
Q 31.390625 60.6875 28.953125 64.34375 
Q 26.515625 68.015625 22.3125 68.015625 
z
M 66.40625 74.21875 
L 74.21875 74.21875 
L 28.609375 -1.421875 
L 20.796875 -1.421875 
z
M 22.3125 74.21875 
Q 30.03125 74.21875 34.609375 68.875 
Q 39.203125 63.53125 39.203125 54.390625 
Q 39.203125 45.171875 34.640625 39.84375 
Q 30.078125 34.515625 22.3125 34.515625 
Q 14.546875 34.515625 10.03125 39.859375 
Q 5.515625 45.21875 5.515625 54.390625 
Q 5.515625 63.484375 10.046875 68.84375 
Q 14.59375 74.21875 22.3125 74.21875 
z
" id="DejaVuSans-25"/>
     </defs>
     <g transform="translate(541.9069 38.969062)scale(0.1 -0.1)">
      <use xlink:href="#DejaVuSans-30"/>
      <use x="63.623047" xlink:href="#DejaVuSans-30"/>
      <use x="127.246094" xlink:href="#DejaVuSans-25"/>
      <use x="222.265625" xlink:href="#DejaVuSans-20"/>
      <use x="254.052734" xlink:href="#DejaVuSans-42"/>
      <use x="322.65625" xlink:href="#DejaVuSans-69"/>
      <use x="350.439453" xlink:href="#DejaVuSans-61"/>
      <use x="411.71875" xlink:href="#DejaVuSans-73"/>
     </g>
    </g>
    <g id="patch_109">
     <path d="M 513.9069 53.647187 
L 533.9069 53.647187 
L 533.9069 46.647187 
L 513.9069 46.647187 
z
" style="fill:#4856fb;opacity:0.5;"/>
    </g>
    <g id="text_20">
     <!-- 10% Bias -->
     <g transform="translate(541.9069 53.647187)scale(0.1 -0.1)">
      <use xlink:href="#DejaVuSans-31"/>
      <use x="63.623047" xlink:href="#DejaVuSans-30"/>
      <use x="127.246094" xlink:href="#DejaVuSans-25"/>
      <use x="222.265625" xlink:href="#DejaVuSans-20"/>
      <use x="254.052734" xlink:href="#DejaVuSans-42"/>
      <use x="322.65625" xlink:href="#DejaVuSans-69"/>
      <use x="350.439453" xlink:href="#DejaVuSans-61"/>
      <use x="411.71875" xlink:href="#DejaVuSans-73"/>
     </g>
    </g>
    <g id="patch_110">
     <path d="M 513.9069 68.325312 
L 533.9069 68.325312 
L 533.9069 61.325312 
L 513.9069 61.325312 
z
" style="fill:#10a2f0;opacity:0.5;"/>
    </g>
    <g id="text_21">
     <!-- 20% Bias -->
     <g transform="translate(541.9069 68.325312)scale(0.1 -0.1)">
      <use xlink:href="#DejaVuSans-32"/>
      <use x="63.623047" xlink:href="#DejaVuSans-30"/>
      <use x="127.246094" xlink:href="#DejaVuSans-25"/>
      <use x="222.265625" xlink:href="#DejaVuSans-20"/>
      <use x="254.052734" xlink:href="#DejaVuSans-42"/>
      <use x="322.65625" xlink:href="#DejaVuSans-69"/>
      <use x="350.439453" xlink:href="#DejaVuSans-61"/>
      <use x="411.71875" xlink:href="#DejaVuSans-73"/>
     </g>
    </g>
    <g id="patch_111">
     <path d="M 513.9069 83.003437 
L 533.9069 83.003437 
L 533.9069 76.003437 
L 513.9069 76.003437 
z
" style="fill:#2adddd;opacity:0.5;"/>
    </g>
    <g id="text_22">
     <!-- 30% Bias -->
     <g transform="translate(541.9069 83.003437)scale(0.1 -0.1)">
      <use xlink:href="#DejaVuSans-33"/>
      <use x="63.623047" xlink:href="#DejaVuSans-30"/>
      <use x="127.246094" xlink:href="#DejaVuSans-25"/>
      <use x="222.265625" xlink:href="#DejaVuSans-20"/>
      <use x="254.052734" xlink:href="#DejaVuSans-42"/>
      <use x="322.65625" xlink:href="#DejaVuSans-69"/>
      <use x="350.439453" xlink:href="#DejaVuSans-61"/>
      <use x="411.71875" xlink:href="#DejaVuSans-73"/>
     </g>
    </g>
    <g id="patch_112">
     <path d="M 513.9069 97.681562 
L 533.9069 97.681562 
L 533.9069 90.681562 
L 513.9069 90.681562 
z
" style="fill:#62fbc4;opacity:0.5;"/>
    </g>
    <g id="text_23">
     <!-- 40% Bias -->
     <g transform="translate(541.9069 97.681562)scale(0.1 -0.1)">
      <use xlink:href="#DejaVuSans-34"/>
      <use x="63.623047" xlink:href="#DejaVuSans-30"/>
      <use x="127.246094" xlink:href="#DejaVuSans-25"/>
      <use x="222.265625" xlink:href="#DejaVuSans-20"/>
      <use x="254.052734" xlink:href="#DejaVuSans-42"/>
      <use x="322.65625" xlink:href="#DejaVuSans-69"/>
      <use x="350.439453" xlink:href="#DejaVuSans-61"/>
      <use x="411.71875" xlink:href="#DejaVuSans-73"/>
     </g>
    </g>
    <g id="patch_113">
     <path d="M 513.9069 112.359687 
L 533.9069 112.359687 
L 533.9069 105.359687 
L 513.9069 105.359687 
z
" style="fill:#9cfba4;opacity:0.5;"/>
    </g>
    <g id="text_24">
     <!-- 50% Bias -->
     <g transform="translate(541.9069 112.359687)scale(0.1 -0.1)">
      <use xlink:href="#DejaVuSans-35"/>
      <use x="63.623047" xlink:href="#DejaVuSans-30"/>
      <use x="127.246094" xlink:href="#DejaVuSans-25"/>
      <use x="222.265625" xlink:href="#DejaVuSans-20"/>
      <use x="254.052734" xlink:href="#DejaVuSans-42"/>
      <use x="322.65625" xlink:href="#DejaVuSans-69"/>
      <use x="350.439453" xlink:href="#DejaVuSans-61"/>
      <use x="411.71875" xlink:href="#DejaVuSans-73"/>
     </g>
    </g>
    <g id="patch_114">
     <path d="M 513.9069 127.037812 
L 533.9069 127.037812 
L 533.9069 120.037812 
L 513.9069 120.037812 
z
" style="fill:#d4dd80;opacity:0.5;"/>
    </g>
    <g id="text_25">
     <!-- 60% Bias -->
     <g transform="translate(541.9069 127.037812)scale(0.1 -0.1)">
      <use xlink:href="#DejaVuSans-36"/>
      <use x="63.623047" xlink:href="#DejaVuSans-30"/>
      <use x="127.246094" xlink:href="#DejaVuSans-25"/>
      <use x="222.265625" xlink:href="#DejaVuSans-20"/>
      <use x="254.052734" xlink:href="#DejaVuSans-42"/>
      <use x="322.65625" xlink:href="#DejaVuSans-69"/>
      <use x="350.439453" xlink:href="#DejaVuSans-61"/>
      <use x="411.71875" xlink:href="#DejaVuSans-73"/>
     </g>
    </g>
    <g id="patch_115">
     <path d="M 513.9069 141.715937 
L 533.9069 141.715937 
L 533.9069 134.715937 
L 513.9069 134.715937 
z
" style="fill:#ffa256;opacity:0.5;"/>
    </g>
    <g id="text_26">
     <!-- 70% Bias -->
     <g transform="translate(541.9069 141.715937)scale(0.1 -0.1)">
      <use xlink:href="#DejaVuSans-37"/>
      <use x="63.623047" xlink:href="#DejaVuSans-30"/>
      <use x="127.246094" xlink:href="#DejaVuSans-25"/>
      <use x="222.265625" xlink:href="#DejaVuSans-20"/>
      <use x="254.052734" xlink:href="#DejaVuSans-42"/>
      <use x="322.65625" xlink:href="#DejaVuSans-69"/>
      <use x="350.439453" xlink:href="#DejaVuSans-61"/>
      <use x="411.71875" xlink:href="#DejaVuSans-73"/>
     </g>
    </g>
    <g id="patch_116">
     <path d="M 513.9069 156.394062 
L 533.9069 156.394062 
L 533.9069 149.394062 
L 513.9069 149.394062 
z
" style="fill:#ff562c;opacity:0.5;"/>
    </g>
    <g id="text_27">
     <!-- 80% Bias -->
     <g transform="translate(541.9069 156.394062)scale(0.1 -0.1)">
      <use xlink:href="#DejaVuSans-38"/>
      <use x="63.623047" xlink:href="#DejaVuSans-30"/>
      <use x="127.246094" xlink:href="#DejaVuSans-25"/>
      <use x="222.265625" xlink:href="#DejaVuSans-20"/>
      <use x="254.052734" xlink:href="#DejaVuSans-42"/>
      <use x="322.65625" xlink:href="#DejaVuSans-69"/>
      <use x="350.439453" xlink:href="#DejaVuSans-61"/>
      <use x="411.71875" xlink:href="#DejaVuSans-73"/>
     </g>
    </g>
    <g id="patch_117">
     <path d="M 513.9069 171.072187 
L 533.9069 171.072187 
L 533.9069 164.072187 
L 513.9069 164.072187 
z
" style="fill:#ff0000;opacity:0.5;"/>
    </g>
    <g id="text_28">
     <!-- 90% Bias -->
     <g transform="translate(541.9069 171.072187)scale(0.1 -0.1)">
      <use xlink:href="#DejaVuSans-39"/>
      <use x="63.623047" xlink:href="#DejaVuSans-30"/>
      <use x="127.246094" xlink:href="#DejaVuSans-25"/>
      <use x="222.265625" xlink:href="#DejaVuSans-20"/>
      <use x="254.052734" xlink:href="#DejaVuSans-42"/>
      <use x="322.65625" xlink:href="#DejaVuSans-69"/>
      <use x="350.439453" xlink:href="#DejaVuSans-61"/>
      <use x="411.71875" xlink:href="#DejaVuSans-73"/>
     </g>
    </g>
   </g>
  </g>
 </g>
 <defs>
  <clipPath id="pa4c2416cb0">
   <rect height="266.112" width="357.12" x="108.03375" y="22.370625"/>
  </clipPath>
 </defs>
</svg>
